<svg width="685" height="230" viewBox="0 0 685 230" fill="none" xmlns="http://www.w3.org/2000/svg">
<circle cx="43.5" cy="98.37" r="26.46" fill="#FFF1F0"/>
<path d="M33.1667 98.4599C33.1667 99.8965 33.7374 101.274 34.7533 102.29C35.7691 103.306 37.1468 103.877 38.5834 103.877C40.5851 103.951 42.4992 104.717 44.0001 106.043C45.501 104.717 47.4151 103.951 49.4167 103.877C50.8533 103.877 52.2311 103.306 53.2469 102.29C54.2627 101.274 54.8334 99.8965 54.8334 98.4599V93.0432H49.4167C47.4151 93.1178 45.501 93.8834 44.0001 95.2099C42.4992 93.8834 40.5851 93.1178 38.5834 93.0432H33.1667V98.4599Z" stroke="#E6372B" stroke-width="1.625" stroke-linecap="round" stroke-linejoin="round"/>
<path d="M37.5001 97.3765C39.1251 97.3765 40.7501 97.9182 40.7501 99.5432C38.5834 99.5432 37.5001 99.5432 37.5001 97.3765Z" stroke="#E6372B" stroke-width="1.625" stroke-linecap="round" stroke-linejoin="round"/>
<path d="M50.5001 97.3765C48.8751 97.3765 47.2501 97.9182 47.2501 99.5432C49.4167 99.5432 50.5001 99.5432 50.5001 97.3765Z" stroke="#E6372B" stroke-width="1.625" stroke-linecap="round" stroke-linejoin="round"/>
<circle cx="64.0398" cy="76.9102" r="10.5" fill="#7A44FF" stroke="#FAFAFA"/>
<mask id="mask0_1_374" style="mask-type:alpha" maskUnits="userSpaceOnUse" x="58" y="69" width="14" height="14">
<rect x="58.04" y="69.91" width="13" height="13" fill="#D9D9D9"/>
</mask>
<g mask="url(#mask0_1_374)">
<path d="M58.5815 80.7436V79.2269C58.5815 78.92 58.6605 78.6378 58.8185 78.3805C58.9765 78.1233 59.1864 77.9269 59.4482 77.7915C60.0079 77.5116 60.5767 77.3017 61.1545 77.1618C61.7322 77.0219 62.319 76.9519 62.9149 76.9519C63.5107 76.9519 64.0975 77.0219 64.6753 77.1618C65.2531 77.3017 65.8218 77.5116 66.3815 77.7915C66.6433 77.9269 66.8532 78.1233 67.0112 78.3805C67.1692 78.6378 67.2482 78.92 67.2482 79.2269V80.7436H58.5815ZM68.3315 80.7436V79.1186C68.3315 78.7213 68.221 78.3399 67.9998 77.9743C67.7786 77.6087 67.4649 77.295 67.0586 77.0332C67.519 77.0873 67.9524 77.1799 68.3586 77.3108C68.7649 77.4417 69.144 77.6019 69.4961 77.7915C69.8211 77.972 70.0694 78.1729 70.2409 78.3941C70.4124 78.6153 70.4982 78.8568 70.4982 79.1186V80.7436H68.3315ZM62.9149 76.4102C62.319 76.4102 61.809 76.1981 61.3847 75.7738C60.9604 75.3495 60.7482 74.8394 60.7482 74.2436C60.7482 73.6477 60.9604 73.1377 61.3847 72.7134C61.809 72.2891 62.319 72.0769 62.9149 72.0769C63.5107 72.0769 64.0208 72.2891 64.4451 72.7134C64.8694 73.1377 65.0815 73.6477 65.0815 74.2436C65.0815 74.8394 64.8694 75.3495 64.4451 75.7738C64.0208 76.1981 63.5107 76.4102 62.9149 76.4102ZM68.3315 74.2436C68.3315 74.8394 68.1194 75.3495 67.6951 75.7738C67.2708 76.1981 66.7607 76.4102 66.1649 76.4102C66.0656 76.4102 65.9392 76.399 65.7857 76.3764C65.6322 76.3538 65.5058 76.329 65.4065 76.3019C65.6503 76.013 65.8376 75.6925 65.9685 75.3404C66.0994 74.9884 66.1649 74.6227 66.1649 74.2436C66.1649 73.8644 66.0994 73.4988 65.9685 73.1467C65.8376 72.7946 65.6503 72.4741 65.4065 72.1852C65.5329 72.1401 65.6593 72.1108 65.7857 72.0972C65.9121 72.0837 66.0385 72.0769 66.1649 72.0769C66.7607 72.0769 67.2708 72.2891 67.6951 72.7134C68.1194 73.1377 68.3315 73.6477 68.3315 74.2436ZM59.6649 79.6602H66.1649V79.2269C66.1649 79.1276 66.14 79.0373 66.0904 78.9561C66.0407 78.8748 65.9753 78.8116 65.894 78.7665C65.4065 78.5227 64.9145 78.3399 64.418 78.2181C63.9215 78.0962 63.4204 78.0352 62.9149 78.0352C62.4093 78.0352 61.9083 78.0962 61.4118 78.2181C60.9152 78.3399 60.4232 78.5227 59.9357 78.7665C59.8545 78.8116 59.789 78.8748 59.7394 78.9561C59.6897 79.0373 59.6649 79.1276 59.6649 79.2269V79.6602ZM62.9149 75.3269C63.2128 75.3269 63.4678 75.2208 63.68 75.0087C63.8921 74.7965 63.9982 74.5415 63.9982 74.2436C63.9982 73.9457 63.8921 73.6906 63.68 73.4785C63.4678 73.2663 63.2128 73.1602 62.9149 73.1602C62.617 73.1602 62.3619 73.2663 62.1498 73.4785C61.9376 73.6906 61.8315 73.9457 61.8315 74.2436C61.8315 74.5415 61.9376 74.7965 62.1498 75.0087C62.3619 75.2208 62.617 75.3269 62.9149 75.3269Z" fill="white"/>
</g>
<path d="M0.6375 141.23L0.644 131.831H2.243V139.865H6.4875V141.23H0.6375ZM10.5305 141.36C9.88917 141.36 9.33017 141.224 8.8535 140.951C8.37683 140.673 8.00633 140.277 7.742 139.761C7.482 139.245 7.352 138.626 7.352 137.902C7.352 137.2 7.47983 136.585 7.7355 136.056C7.99117 135.527 8.35517 135.116 8.8275 134.821C9.30417 134.526 9.874 134.379 10.537 134.379C11.1783 134.379 11.7352 134.52 12.2075 134.802C12.6798 135.083 13.0438 135.486 13.2995 136.011C13.5595 136.535 13.6895 137.165 13.6895 137.902C13.6895 138.582 13.566 139.183 13.319 139.703C13.0763 140.218 12.7188 140.623 12.2465 140.918C11.7785 141.213 11.2065 141.36 10.5305 141.36ZM10.537 140.158C10.901 140.158 11.2 140.058 11.434 139.859C11.6723 139.659 11.85 139.386 11.967 139.04C12.084 138.693 12.1425 138.299 12.1425 137.857C12.1425 137.445 12.0905 137.066 11.9865 136.719C11.8825 136.372 11.7113 136.095 11.473 135.887C11.239 135.675 10.927 135.569 10.537 135.569C10.1687 135.569 9.86317 135.666 9.6205 135.861C9.38217 136.052 9.2045 136.32 9.0875 136.667C8.9705 137.009 8.912 137.406 8.912 137.857C8.912 138.264 8.964 138.643 9.068 138.994C9.172 139.341 9.34317 139.622 9.5815 139.839C9.81983 140.051 10.1383 140.158 10.537 140.158ZM15.1363 141.23V134.509H16.6508V135.965C16.7591 135.631 16.9129 135.348 17.1123 135.114C17.3159 134.875 17.5543 134.693 17.8273 134.568C18.1003 134.442 18.3971 134.379 18.7178 134.379C18.7958 134.379 18.8716 134.383 18.9453 134.392C19.0189 134.401 19.0731 134.416 19.1078 134.438V135.952C19.0601 135.93 18.9973 135.915 18.9193 135.907C18.8456 135.898 18.7806 135.894 18.7243 135.894C18.3993 135.868 18.1111 135.881 17.8598 135.933C17.6128 135.985 17.4026 136.073 17.2293 136.199C17.0603 136.32 16.9324 136.476 16.8458 136.667C16.7591 136.853 16.7158 137.072 16.7158 137.324V141.23H15.1363ZM23.2864 141.36C22.6408 141.36 22.0709 141.224 21.5769 140.951C21.0873 140.673 20.7038 140.279 20.4264 139.768C20.1534 139.256 20.0169 138.647 20.0169 137.941C20.0169 137.252 20.1404 136.641 20.3874 136.108C20.6388 135.571 21.0006 135.148 21.4729 134.841C21.9496 134.533 22.5238 134.379 23.1954 134.379C23.8584 134.379 24.4153 134.52 24.8659 134.802C25.3166 135.083 25.6589 135.478 25.8929 135.985C26.1269 136.487 26.2439 137.077 26.2439 137.753V138.234H21.5964C21.5921 138.615 21.6528 138.953 21.7784 139.248C21.9041 139.542 22.0904 139.774 22.3374 139.943C22.5844 140.108 22.8899 140.19 23.2539 140.19C23.6266 140.19 23.9494 140.108 24.2224 139.943C24.4998 139.774 24.6839 139.518 24.7749 139.176H26.2179C26.1399 139.644 25.9536 140.041 25.6589 140.366C25.3686 140.691 25.0133 140.938 24.5929 141.107C24.1769 141.276 23.7414 141.36 23.2864 141.36ZM21.5899 137.252H24.7489C24.7489 136.927 24.6904 136.635 24.5734 136.375C24.4608 136.11 24.2896 135.902 24.0599 135.751C23.8303 135.595 23.5399 135.517 23.1889 135.517C22.8423 135.517 22.5498 135.601 22.3114 135.77C22.0731 135.939 21.8933 136.158 21.7719 136.427C21.6506 136.691 21.5899 136.966 21.5899 137.252ZM27.7554 141.23V134.509H29.2959V135.471C29.4909 135.176 29.7552 134.921 30.0889 134.704C30.4269 134.487 30.8559 134.379 31.3759 134.379C31.6142 134.379 31.8547 134.42 32.0974 134.503C32.3444 134.585 32.5719 134.706 32.7799 134.867C32.9922 135.027 33.1612 135.226 33.2869 135.465C33.4992 135.148 33.7809 134.888 34.1319 134.685C34.4872 134.481 34.8859 134.379 35.3279 134.379C35.5706 134.379 35.8197 134.418 36.0754 134.496C36.3354 134.574 36.5737 134.704 36.7904 134.886C37.0071 135.068 37.1826 135.317 37.3169 135.634C37.4512 135.946 37.5184 136.338 37.5184 136.81V141.23H35.9389V136.999C35.9389 136.665 35.8804 136.403 35.7634 136.212C35.6464 136.021 35.4947 135.887 35.3084 135.809C35.1264 135.727 34.9314 135.686 34.7234 135.686C34.5371 135.686 34.3421 135.722 34.1384 135.796C33.9391 135.87 33.7679 135.991 33.6249 136.16C33.4862 136.329 33.4169 136.557 33.4169 136.843V141.23H31.8374V136.745C31.8374 136.511 31.7767 136.316 31.6554 136.16C31.5341 136.004 31.3802 135.887 31.1939 135.809C31.0119 135.727 30.8256 135.686 30.6349 135.686C30.4399 135.686 30.2406 135.727 30.0369 135.809C29.8376 135.891 29.6707 136.017 29.5364 136.186C29.4021 136.355 29.3349 136.574 29.3349 136.843V141.23H27.7554ZM39.2453 141.23V134.509H40.7598V141.23H39.2453ZM39.2193 133.333V131.838H40.7858V133.333H39.2193ZM42.6343 143.323V134.509H44.2138L44.2268 135.569C44.3135 135.421 44.424 135.276 44.5583 135.133C44.697 134.99 44.8551 134.862 45.0328 134.75C45.2148 134.637 45.4163 134.548 45.6373 134.483C45.8583 134.414 46.101 134.379 46.3653 134.379C46.881 134.379 47.3381 134.503 47.7368 134.75C48.1355 134.992 48.4475 135.367 48.6728 135.874C48.9025 136.381 49.0173 137.022 49.0173 137.798C49.0173 138.591 48.9003 139.252 48.6663 139.781C48.4323 140.309 48.1051 140.706 47.6848 140.97C47.2645 141.23 46.777 141.36 46.2223 141.36C45.9666 141.36 45.7326 141.325 45.5203 141.256C45.3123 141.187 45.126 141.091 44.9613 140.97C44.7966 140.849 44.6515 140.717 44.5258 140.574C44.4045 140.431 44.3026 140.281 44.2203 140.125V143.323H42.6343ZM45.8713 140.177C46.348 140.177 46.7423 139.989 47.0543 139.612C47.3663 139.23 47.5223 138.634 47.5223 137.824C47.5223 137.122 47.375 136.57 47.0803 136.167C46.79 135.759 46.387 135.556 45.8713 135.556C45.3166 135.556 44.9006 135.77 44.6233 136.199C44.346 136.624 44.2073 137.165 44.2073 137.824C44.2073 138.249 44.268 138.641 44.3893 139.001C44.515 139.356 44.6991 139.642 44.9418 139.859C45.1888 140.071 45.4986 140.177 45.8713 140.177ZM53.0032 141.36C52.5352 141.36 52.0911 141.286 51.6707 141.139C51.2547 140.987 50.9037 140.751 50.6177 140.431C50.3361 140.11 50.1584 139.696 50.0847 139.189H51.4757C51.5364 139.436 51.6426 139.638 51.7942 139.794C51.9502 139.95 52.1322 140.064 52.3402 140.138C52.5526 140.207 52.7714 140.242 52.9967 140.242C53.3997 140.242 53.7247 140.173 53.9717 140.034C54.2187 139.895 54.3422 139.681 54.3422 139.391C54.3422 139.178 54.2729 139.009 54.1342 138.884C53.9999 138.758 53.7789 138.663 53.4712 138.598L52.1972 138.305C51.6252 138.179 51.1681 137.971 50.8257 137.681C50.4834 137.391 50.3101 136.981 50.3057 136.453C50.3014 136.054 50.4011 135.699 50.6047 135.387C50.8084 135.075 51.1117 134.83 51.5147 134.652C51.9177 134.47 52.4139 134.379 53.0032 134.379C53.7876 134.379 54.4159 134.555 54.8882 134.906C55.3649 135.252 55.6097 135.748 55.6227 136.394H54.2772C54.2296 136.104 54.0931 135.878 53.8677 135.718C53.6424 135.553 53.3499 135.471 52.9902 135.471C52.6176 135.471 52.3121 135.543 52.0737 135.686C51.8354 135.829 51.7162 136.047 51.7162 136.342C51.7162 136.546 51.8051 136.706 51.9827 136.823C52.1647 136.94 52.4399 137.04 52.8082 137.122L54.0172 137.415C54.3639 137.501 54.6477 137.618 54.8687 137.766C55.0897 137.913 55.2609 138.075 55.3822 138.253C55.5079 138.426 55.5946 138.606 55.6422 138.793C55.6942 138.975 55.7202 139.144 55.7202 139.3C55.7202 139.733 55.6076 140.103 55.3822 140.411C55.1612 140.714 54.8471 140.948 54.4397 141.113C54.0367 141.278 53.5579 141.36 53.0032 141.36ZM59.6277 141.36C59.2984 141.36 58.9799 141.312 58.6722 141.217C58.3689 141.117 58.0959 140.974 57.8532 140.788C57.6106 140.597 57.4177 140.363 57.2747 140.086C57.1317 139.809 57.0602 139.486 57.0602 139.118V134.509H58.6462V138.936C58.6462 139.3 58.7611 139.599 58.9907 139.833C59.2247 140.067 59.5757 140.184 60.0437 140.184C60.4684 140.184 60.8086 140.073 61.0642 139.852C61.3199 139.627 61.4477 139.304 61.4477 138.884V134.509H63.0207V141.23H61.8052L61.6297 139.917C61.5474 140.285 61.4022 140.576 61.1942 140.788C60.9906 140.996 60.7501 141.143 60.4727 141.23C60.1997 141.317 59.9181 141.36 59.6277 141.36ZM64.8765 141.23V134.509H66.417V135.471C66.612 135.176 66.8763 134.921 67.21 134.704C67.548 134.487 67.977 134.379 68.497 134.379C68.7353 134.379 68.9758 134.42 69.2185 134.503C69.4655 134.585 69.693 134.706 69.901 134.867C70.1133 135.027 70.2823 135.226 70.408 135.465C70.6203 135.148 70.902 134.888 71.253 134.685C71.6083 134.481 72.007 134.379 72.449 134.379C72.6917 134.379 72.9408 134.418 73.1965 134.496C73.4565 134.574 73.6948 134.704 73.9115 134.886C74.1282 135.068 74.3037 135.317 74.438 135.634C74.5723 135.946 74.6395 136.338 74.6395 136.81V141.23H73.06V136.999C73.06 136.665 73.0015 136.403 72.8845 136.212C72.7675 136.021 72.6158 135.887 72.4295 135.809C72.2475 135.727 72.0525 135.686 71.8445 135.686C71.6582 135.686 71.4632 135.722 71.2595 135.796C71.0602 135.87 70.889 135.991 70.746 136.16C70.6073 136.329 70.538 136.557 70.538 136.843V141.23H68.9585V136.745C68.9585 136.511 68.8978 136.316 68.7765 136.16C68.6552 136.004 68.5013 135.887 68.315 135.809C68.133 135.727 67.9467 135.686 67.756 135.686C67.561 135.686 67.3617 135.727 67.158 135.809C66.9587 135.891 66.7918 136.017 66.6575 136.186C66.5232 136.355 66.456 136.574 66.456 136.843V141.23H64.8765ZM76.3404 141.23V134.509H77.8809V135.471C78.0759 135.176 78.3402 134.921 78.6739 134.704C79.0119 134.487 79.4409 134.379 79.9609 134.379C80.1992 134.379 80.4397 134.42 80.6824 134.503C80.9294 134.585 81.1569 134.706 81.3649 134.867C81.5772 135.027 81.7462 135.226 81.8719 135.465C82.0842 135.148 82.3659 134.888 82.7169 134.685C83.0722 134.481 83.4709 134.379 83.9129 134.379C84.1555 134.379 84.4047 134.418 84.6604 134.496C84.9204 134.574 85.1587 134.704 85.3754 134.886C85.592 135.068 85.7675 135.317 85.9019 135.634C86.0362 135.946 86.1034 136.338 86.1034 136.81V141.23H84.5239V136.999C84.5239 136.665 84.4654 136.403 84.3484 136.212C84.2314 136.021 84.0797 135.887 83.8934 135.809C83.7114 135.727 83.5164 135.686 83.3084 135.686C83.122 135.686 82.927 135.722 82.7234 135.796C82.524 135.87 82.3529 135.991 82.2099 136.16C82.0712 136.329 82.0019 136.557 82.0019 136.843V141.23H80.4224V136.745C80.4224 136.511 80.3617 136.316 80.2404 136.16C80.119 136.004 79.9652 135.887 79.7789 135.809C79.5969 135.727 79.4105 135.686 79.2199 135.686C79.0249 135.686 78.8255 135.727 78.6219 135.809C78.4225 135.891 78.2557 136.017 78.1214 136.186C77.987 136.355 77.9199 136.574 77.9199 136.843V141.23H76.3404Z" fill="#525D73"/>
<path d="M36.9772 154.93V148.098H41.3431L41.3384 148.967H38.0073V151.079H40.9699V151.939H38.0073V154.93H36.9772ZM44.0312 154.93L42.0514 148.098H43.0625L44.5084 153.286L45.9731 148.098H46.748L48.2128 153.286L49.6775 148.098H50.684L48.6853 154.93H47.797L46.3559 149.86L44.8958 154.93H44.0312Z" fill="white"/>
<path d="M142.5 114.92L138.75 112.755L138.75 117.085L142.5 114.92ZM84 115.295L139.125 115.295L139.125 114.545L84 114.545L84 115.295Z" fill="#858D9D"/>
<circle cx="182.493" cy="105.22" r="26.46" fill="#D7EAFF"/>
<path d="M175.062 99.4298H175.072M175.062 110.294H175.072M172.874 95.8086H190.374C191.582 95.8086 192.562 96.6192 192.562 97.6192V101.24C192.562 102.24 191.582 103.051 190.374 103.051H172.874C171.666 103.051 170.687 102.24 170.687 101.24V97.6192C170.687 96.6192 171.666 95.8086 172.874 95.8086ZM172.874 106.672H190.374C191.582 106.672 192.562 107.483 192.562 108.483V112.104C192.562 113.104 191.582 113.915 190.374 113.915H172.874C171.666 113.915 170.687 113.104 170.687 112.104V108.483C170.687 107.483 171.666 106.672 172.874 106.672Z" stroke="#1873DE" stroke-width="1.81062" stroke-linecap="round" stroke-linejoin="round"/>
<path d="M151.638 148.08L151.644 138.681H153.243V146.715H157.488V148.08H151.638ZM161.531 148.21C160.889 148.21 160.33 148.074 159.854 147.801C159.377 147.523 159.006 147.127 158.742 146.611C158.482 146.096 158.352 145.476 158.352 144.752C158.352 144.05 158.48 143.435 158.736 142.906C158.991 142.378 159.355 141.966 159.828 141.671C160.304 141.377 160.874 141.229 161.537 141.229C162.178 141.229 162.735 141.37 163.208 141.652C163.68 141.933 164.044 142.336 164.3 142.861C164.56 143.385 164.69 144.016 164.69 144.752C164.69 145.433 164.566 146.033 164.319 146.553C164.076 147.068 163.719 147.474 163.247 147.768C162.779 148.063 162.207 148.21 161.531 148.21ZM161.537 147.008C161.901 147.008 162.2 146.908 162.434 146.709C162.672 146.509 162.85 146.236 162.967 145.89C163.084 145.543 163.143 145.149 163.143 144.707C163.143 144.295 163.091 143.916 162.987 143.569C162.883 143.223 162.711 142.945 162.473 142.737C162.239 142.525 161.927 142.419 161.537 142.419C161.169 142.419 160.863 142.516 160.621 142.711C160.382 142.902 160.205 143.171 160.088 143.517C159.971 143.86 159.912 144.256 159.912 144.707C159.912 145.114 159.964 145.493 160.068 145.844C160.172 146.191 160.343 146.473 160.582 146.689C160.82 146.902 161.138 147.008 161.537 147.008ZM166.136 148.08V141.359H167.651V142.815C167.759 142.482 167.913 142.198 168.112 141.964C168.316 141.725 168.554 141.543 168.827 141.418C169.1 141.292 169.397 141.229 169.718 141.229C169.796 141.229 169.872 141.234 169.945 141.242C170.019 141.251 170.073 141.266 170.108 141.288V142.802C170.06 142.781 169.997 142.765 169.919 142.757C169.846 142.748 169.781 142.744 169.724 142.744C169.399 142.718 169.111 142.731 168.86 142.783C168.613 142.835 168.403 142.924 168.229 143.049C168.06 143.171 167.932 143.327 167.846 143.517C167.759 143.704 167.716 143.922 167.716 144.174V148.08H166.136ZM174.286 148.21C173.641 148.21 173.071 148.074 172.577 147.801C172.087 147.523 171.704 147.129 171.426 146.618C171.153 146.106 171.017 145.498 171.017 144.791C171.017 144.102 171.14 143.491 171.387 142.958C171.639 142.421 172.001 141.998 172.473 141.691C172.95 141.383 173.524 141.229 174.195 141.229C174.858 141.229 175.415 141.37 175.866 141.652C176.317 141.933 176.659 142.328 176.893 142.835C177.127 143.337 177.244 143.927 177.244 144.603V145.084H172.596C172.592 145.465 172.653 145.803 172.778 146.098C172.904 146.392 173.09 146.624 173.337 146.793C173.584 146.958 173.89 147.04 174.254 147.04C174.627 147.04 174.949 146.958 175.222 146.793C175.5 146.624 175.684 146.369 175.775 146.026H177.218C177.14 146.494 176.954 146.891 176.659 147.216C176.369 147.541 176.013 147.788 175.593 147.957C175.177 148.126 174.741 148.21 174.286 148.21ZM172.59 144.102H175.749C175.749 143.777 175.69 143.485 175.573 143.225C175.461 142.96 175.29 142.752 175.06 142.601C174.83 142.445 174.54 142.367 174.189 142.367C173.842 142.367 173.55 142.451 173.311 142.62C173.073 142.789 172.893 143.008 172.772 143.277C172.651 143.541 172.59 143.816 172.59 144.102ZM178.755 148.08V141.359H180.296V142.321C180.491 142.027 180.755 141.771 181.089 141.554C181.427 141.338 181.856 141.229 182.376 141.229C182.614 141.229 182.855 141.27 183.097 141.353C183.344 141.435 183.572 141.556 183.78 141.717C183.992 141.877 184.161 142.076 184.287 142.315C184.499 141.998 184.781 141.738 185.132 141.535C185.487 141.331 185.886 141.229 186.328 141.229C186.571 141.229 186.82 141.268 187.075 141.346C187.335 141.424 187.574 141.554 187.79 141.736C188.007 141.918 188.183 142.167 188.317 142.484C188.451 142.796 188.518 143.188 188.518 143.66V148.08H186.939V143.849C186.939 143.515 186.88 143.253 186.763 143.062C186.646 142.872 186.495 142.737 186.308 142.659C186.126 142.577 185.931 142.536 185.723 142.536C185.537 142.536 185.342 142.573 185.138 142.646C184.939 142.72 184.768 142.841 184.625 143.01C184.486 143.179 184.417 143.407 184.417 143.693V148.08H182.837V143.595C182.837 143.361 182.777 143.166 182.655 143.01C182.534 142.854 182.38 142.737 182.194 142.659C182.012 142.577 181.826 142.536 181.635 142.536C181.44 142.536 181.241 142.577 181.037 142.659C180.838 142.742 180.671 142.867 180.536 143.036C180.402 143.205 180.335 143.424 180.335 143.693V148.08H178.755ZM190.245 148.08V141.359H191.76V148.08H190.245ZM190.219 140.183V138.688H191.786V140.183H190.219ZM193.634 150.173V141.359H195.214L195.227 142.419C195.313 142.271 195.424 142.126 195.558 141.983C195.697 141.84 195.855 141.712 196.033 141.6C196.215 141.487 196.416 141.398 196.637 141.333C196.858 141.264 197.101 141.229 197.365 141.229C197.881 141.229 198.338 141.353 198.737 141.6C199.135 141.842 199.447 142.217 199.673 142.724C199.902 143.231 200.017 143.873 200.017 144.648C200.017 145.441 199.9 146.102 199.666 146.631C199.432 147.159 199.105 147.556 198.685 147.82C198.264 148.08 197.777 148.21 197.222 148.21C196.967 148.21 196.733 148.176 196.52 148.106C196.312 148.037 196.126 147.942 195.961 147.82C195.797 147.699 195.651 147.567 195.526 147.424C195.404 147.281 195.303 147.131 195.22 146.975V150.173H193.634ZM196.871 147.027C197.348 147.027 197.742 146.839 198.054 146.462C198.366 146.08 198.522 145.485 198.522 144.674C198.522 143.972 198.375 143.42 198.08 143.017C197.79 142.609 197.387 142.406 196.871 142.406C196.317 142.406 195.901 142.62 195.623 143.049C195.346 143.474 195.207 144.016 195.207 144.674C195.207 145.099 195.268 145.491 195.389 145.851C195.515 146.206 195.699 146.492 195.942 146.709C196.189 146.921 196.499 147.027 196.871 147.027ZM204.003 148.21C203.535 148.21 203.091 148.137 202.671 147.989C202.255 147.838 201.904 147.601 201.618 147.281C201.336 146.96 201.158 146.546 201.085 146.039H202.476C202.536 146.286 202.643 146.488 202.794 146.644C202.95 146.8 203.132 146.915 203.34 146.988C203.553 147.058 203.771 147.092 203.997 147.092C204.4 147.092 204.725 147.023 204.972 146.884C205.219 146.746 205.342 146.531 205.342 146.241C205.342 146.028 205.273 145.859 205.134 145.734C205 145.608 204.779 145.513 204.471 145.448L203.197 145.155C202.625 145.03 202.168 144.822 201.826 144.531C201.483 144.241 201.31 143.831 201.306 143.303C201.301 142.904 201.401 142.549 201.605 142.237C201.808 141.925 202.112 141.68 202.515 141.502C202.918 141.32 203.414 141.229 204.003 141.229C204.788 141.229 205.416 141.405 205.888 141.756C206.365 142.102 206.61 142.599 206.623 143.244H205.277C205.23 142.954 205.093 142.729 204.868 142.568C204.642 142.404 204.35 142.321 203.99 142.321C203.618 142.321 203.312 142.393 203.074 142.536C202.835 142.679 202.716 142.898 202.716 143.192C202.716 143.396 202.805 143.556 202.983 143.673C203.165 143.79 203.44 143.89 203.808 143.972L205.017 144.265C205.364 144.351 205.648 144.468 205.869 144.616C206.09 144.763 206.261 144.926 206.382 145.103C206.508 145.277 206.595 145.456 206.642 145.643C206.694 145.825 206.72 145.994 206.72 146.15C206.72 146.583 206.608 146.954 206.382 147.261C206.161 147.565 205.847 147.799 205.44 147.963C205.037 148.128 204.558 148.21 204.003 148.21ZM210.628 148.21C210.298 148.21 209.98 148.163 209.672 148.067C209.369 147.968 209.096 147.825 208.853 147.638C208.611 147.448 208.418 147.214 208.275 146.936C208.132 146.659 208.06 146.336 208.06 145.968V141.359H209.646V145.786C209.646 146.15 209.761 146.449 209.991 146.683C210.225 146.917 210.576 147.034 211.044 147.034C211.468 147.034 211.809 146.923 212.064 146.702C212.32 146.477 212.448 146.154 212.448 145.734V141.359H214.021V148.08H212.805L212.63 146.767C212.547 147.136 212.402 147.426 212.194 147.638C211.991 147.846 211.75 147.994 211.473 148.08C211.2 148.167 210.918 148.21 210.628 148.21Z" fill="#525D73"/>
<path d="M282 114.92L278.25 112.755L278.25 117.085L282 114.92ZM223.5 115.295L278.625 115.295L278.625 114.545L223.5 114.545L223.5 115.295Z" fill="#858D9D"/>
<circle cx="321.993" cy="105.22" r="26.46" fill="#D7EAFF"/>
<path d="M314.562 99.4298H314.572M314.562 110.294H314.572M312.374 95.8086H329.874C331.082 95.8086 332.062 96.6192 332.062 97.6192V101.24C332.062 102.24 331.082 103.051 329.874 103.051H312.374C311.166 103.051 310.187 102.24 310.187 101.24V97.6192C310.187 96.6192 311.166 95.8086 312.374 95.8086ZM312.374 106.672H329.874C331.082 106.672 332.062 107.483 332.062 108.483V112.104C332.062 113.104 331.082 113.915 329.874 113.915H312.374C311.166 113.915 310.187 113.104 310.187 112.104V108.483C310.187 107.483 311.166 106.672 312.374 106.672Z" stroke="#1873DE" stroke-width="1.81062" stroke-linecap="round" stroke-linejoin="round"/>
<path d="M291.138 148.08L291.144 138.681H292.743V146.715H296.988V148.08H291.138ZM301.031 148.21C300.389 148.21 299.83 148.074 299.354 147.801C298.877 147.523 298.506 147.127 298.242 146.611C297.982 146.096 297.852 145.476 297.852 144.752C297.852 144.05 297.98 143.435 298.236 142.906C298.491 142.378 298.855 141.966 299.328 141.671C299.804 141.377 300.374 141.229 301.037 141.229C301.678 141.229 302.235 141.37 302.708 141.652C303.18 141.933 303.544 142.336 303.8 142.861C304.06 143.385 304.19 144.016 304.19 144.752C304.19 145.433 304.066 146.033 303.819 146.553C303.576 147.068 303.219 147.474 302.747 147.768C302.279 148.063 301.707 148.21 301.031 148.21ZM301.037 147.008C301.401 147.008 301.7 146.908 301.934 146.709C302.172 146.509 302.35 146.236 302.467 145.89C302.584 145.543 302.643 145.149 302.643 144.707C302.643 144.295 302.591 143.916 302.487 143.569C302.383 143.223 302.211 142.945 301.973 142.737C301.739 142.525 301.427 142.419 301.037 142.419C300.669 142.419 300.363 142.516 300.121 142.711C299.882 142.902 299.705 143.171 299.588 143.517C299.471 143.86 299.412 144.256 299.412 144.707C299.412 145.114 299.464 145.493 299.568 145.844C299.672 146.191 299.843 146.473 300.082 146.689C300.32 146.902 300.638 147.008 301.037 147.008ZM305.636 148.08V141.359H307.151V142.815C307.259 142.482 307.413 142.198 307.612 141.964C307.816 141.725 308.054 141.543 308.327 141.418C308.6 141.292 308.897 141.229 309.218 141.229C309.296 141.229 309.372 141.234 309.445 141.242C309.519 141.251 309.573 141.266 309.608 141.288V142.802C309.56 142.781 309.497 142.765 309.419 142.757C309.346 142.748 309.281 142.744 309.224 142.744C308.899 142.718 308.611 142.731 308.36 142.783C308.113 142.835 307.903 142.924 307.729 143.049C307.56 143.171 307.432 143.327 307.346 143.517C307.259 143.704 307.216 143.922 307.216 144.174V148.08H305.636ZM313.786 148.21C313.141 148.21 312.571 148.074 312.077 147.801C311.587 147.523 311.204 147.129 310.926 146.618C310.653 146.106 310.517 145.498 310.517 144.791C310.517 144.102 310.64 143.491 310.887 142.958C311.139 142.421 311.501 141.998 311.973 141.691C312.45 141.383 313.024 141.229 313.695 141.229C314.358 141.229 314.915 141.37 315.366 141.652C315.817 141.933 316.159 142.328 316.393 142.835C316.627 143.337 316.744 143.927 316.744 144.603V145.084H312.096C312.092 145.465 312.153 145.803 312.278 146.098C312.404 146.392 312.59 146.624 312.837 146.793C313.084 146.958 313.39 147.04 313.754 147.04C314.127 147.04 314.449 146.958 314.722 146.793C315 146.624 315.184 146.369 315.275 146.026H316.718C316.64 146.494 316.454 146.891 316.159 147.216C315.869 147.541 315.513 147.788 315.093 147.957C314.677 148.126 314.241 148.21 313.786 148.21ZM312.09 144.102H315.249C315.249 143.777 315.19 143.485 315.073 143.225C314.961 142.96 314.79 142.752 314.56 142.601C314.33 142.445 314.04 142.367 313.689 142.367C313.342 142.367 313.05 142.451 312.811 142.62C312.573 142.789 312.393 143.008 312.272 143.277C312.151 143.541 312.09 143.816 312.09 144.102ZM318.255 148.08V141.359H319.796V142.321C319.991 142.027 320.255 141.771 320.589 141.554C320.927 141.338 321.356 141.229 321.876 141.229C322.114 141.229 322.355 141.27 322.597 141.353C322.844 141.435 323.072 141.556 323.28 141.717C323.492 141.877 323.661 142.076 323.787 142.315C323.999 141.998 324.281 141.738 324.632 141.535C324.987 141.331 325.386 141.229 325.828 141.229C326.071 141.229 326.32 141.268 326.575 141.346C326.835 141.424 327.074 141.554 327.29 141.736C327.507 141.918 327.683 142.167 327.817 142.484C327.951 142.796 328.018 143.188 328.018 143.66V148.08H326.439V143.849C326.439 143.515 326.38 143.253 326.263 143.062C326.146 142.872 325.995 142.737 325.808 142.659C325.626 142.577 325.431 142.536 325.223 142.536C325.037 142.536 324.842 142.573 324.638 142.646C324.439 142.72 324.268 142.841 324.125 143.01C323.986 143.179 323.917 143.407 323.917 143.693V148.08H322.337V143.595C322.337 143.361 322.277 143.166 322.155 143.01C322.034 142.854 321.88 142.737 321.694 142.659C321.512 142.577 321.326 142.536 321.135 142.536C320.94 142.536 320.741 142.577 320.537 142.659C320.338 142.742 320.171 142.867 320.036 143.036C319.902 143.205 319.835 143.424 319.835 143.693V148.08H318.255ZM329.745 148.08V141.359H331.26V148.08H329.745ZM329.719 140.183V138.688H331.286V140.183H329.719ZM333.134 150.173V141.359H334.714L334.727 142.419C334.813 142.271 334.924 142.126 335.058 141.983C335.197 141.84 335.355 141.712 335.533 141.6C335.715 141.487 335.916 141.398 336.137 141.333C336.358 141.264 336.601 141.229 336.865 141.229C337.381 141.229 337.838 141.353 338.237 141.6C338.635 141.842 338.947 142.217 339.173 142.724C339.402 143.231 339.517 143.873 339.517 144.648C339.517 145.441 339.4 146.102 339.166 146.631C338.932 147.159 338.605 147.556 338.185 147.82C337.764 148.08 337.277 148.21 336.722 148.21C336.467 148.21 336.233 148.176 336.02 148.106C335.812 148.037 335.626 147.942 335.461 147.82C335.297 147.699 335.151 147.567 335.026 147.424C334.904 147.281 334.803 147.131 334.72 146.975V150.173H333.134ZM336.371 147.027C336.848 147.027 337.242 146.839 337.554 146.462C337.866 146.08 338.022 145.485 338.022 144.674C338.022 143.972 337.875 143.42 337.58 143.017C337.29 142.609 336.887 142.406 336.371 142.406C335.817 142.406 335.401 142.62 335.123 143.049C334.846 143.474 334.707 144.016 334.707 144.674C334.707 145.099 334.768 145.491 334.889 145.851C335.015 146.206 335.199 146.492 335.442 146.709C335.689 146.921 335.999 147.027 336.371 147.027ZM343.503 148.21C343.035 148.21 342.591 148.137 342.171 147.989C341.755 147.838 341.404 147.601 341.118 147.281C340.836 146.96 340.658 146.546 340.585 146.039H341.976C342.036 146.286 342.143 146.488 342.294 146.644C342.45 146.8 342.632 146.915 342.84 146.988C343.053 147.058 343.271 147.092 343.497 147.092C343.9 147.092 344.225 147.023 344.472 146.884C344.719 146.746 344.842 146.531 344.842 146.241C344.842 146.028 344.773 145.859 344.634 145.734C344.5 145.608 344.279 145.513 343.971 145.448L342.697 145.155C342.125 145.03 341.668 144.822 341.326 144.531C340.983 144.241 340.81 143.831 340.806 143.303C340.801 142.904 340.901 142.549 341.105 142.237C341.308 141.925 341.612 141.68 342.015 141.502C342.418 141.32 342.914 141.229 343.503 141.229C344.288 141.229 344.916 141.405 345.388 141.756C345.865 142.102 346.11 142.599 346.123 143.244H344.777C344.73 142.954 344.593 142.729 344.368 142.568C344.142 142.404 343.85 142.321 343.49 142.321C343.118 142.321 342.812 142.393 342.574 142.536C342.335 142.679 342.216 142.898 342.216 143.192C342.216 143.396 342.305 143.556 342.483 143.673C342.665 143.79 342.94 143.89 343.308 143.972L344.517 144.265C344.864 144.351 345.148 144.468 345.369 144.616C345.59 144.763 345.761 144.926 345.882 145.103C346.008 145.277 346.095 145.456 346.142 145.643C346.194 145.825 346.22 145.994 346.22 146.15C346.22 146.583 346.108 146.954 345.882 147.261C345.661 147.565 345.347 147.799 344.94 147.963C344.537 148.128 344.058 148.21 343.503 148.21ZM350.128 148.21C349.798 148.21 349.48 148.163 349.172 148.067C348.869 147.968 348.596 147.825 348.353 147.638C348.111 147.448 347.918 147.214 347.775 146.936C347.632 146.659 347.56 146.336 347.56 145.968V141.359H349.146V145.786C349.146 146.15 349.261 146.449 349.491 146.683C349.725 146.917 350.076 147.034 350.544 147.034C350.968 147.034 351.309 146.923 351.564 146.702C351.82 146.477 351.948 146.154 351.948 145.734V141.359H353.521V148.08H352.305L352.13 146.767C352.047 147.136 351.902 147.426 351.694 147.638C351.491 147.846 351.25 147.994 350.973 148.08C350.7 148.167 350.418 148.21 350.128 148.21Z" fill="#525D73"/>
<path d="M571 62.561L567.25 64.7261L567.25 60.396L571 62.561ZM443.832 115.936L363 115.936L363 115.186L443.832 115.186L443.832 115.936ZM567.625 62.936L507.795 62.936L507.795 62.186L567.625 62.186L567.625 62.936ZM490.503 71.2585L461.71 107.331L461.124 106.864L489.917 70.7907L490.503 71.2585ZM507.795 62.936C501.066 62.936 494.702 65.9989 490.503 71.2585L489.917 70.7907C494.258 65.3528 500.837 62.186 507.795 62.186L507.795 62.936ZM443.832 115.186C450.562 115.186 456.925 112.123 461.124 106.864L461.71 107.331C457.369 112.769 450.79 115.936 443.832 115.936L443.832 115.186Z" fill="#858D9D"/>
<path d="M571 167.279L567.25 165.114L567.25 169.444L571 167.279ZM443.96 114.904L363 114.904L363 115.654L443.96 115.654L443.96 114.904ZM567.625 166.904L507.667 166.904L507.667 167.654L567.625 167.654L567.625 166.904ZM490.504 158.742L461.705 123.343L461.123 123.816L489.922 159.215L490.504 158.742ZM507.667 166.904C501.009 166.904 494.705 163.906 490.504 158.742L489.922 159.215C494.266 164.554 500.783 167.654 507.667 167.654L507.667 166.904ZM443.96 115.654C450.618 115.654 456.922 118.652 461.123 123.816L461.705 123.343C457.361 118.003 450.844 114.904 443.96 114.904L443.96 115.654Z" fill="#858D9D"/>
<circle cx="611.5" cy="35.9101" r="26.46" fill="#D7EAFF"/>
<path d="M604.562 30.4298H604.572M604.562 41.2936H604.572M602.374 26.8086H619.874C621.082 26.8086 622.062 27.6192 622.062 28.6192V32.2405C622.062 33.2405 621.082 34.0511 619.874 34.0511H602.374C601.166 34.0511 600.187 33.2405 600.187 32.2405V28.6192C600.187 27.6192 601.166 26.8086 602.374 26.8086ZM602.374 37.6724H619.874C621.082 37.6724 622.062 38.483 622.062 39.483V43.1042C622.062 44.1042 621.082 44.9149 619.874 44.9149H602.374C601.166 44.9149 600.187 44.1042 600.187 43.1042V39.483C600.187 38.483 601.166 37.6724 602.374 37.6724Z" stroke="#1873DE" stroke-width="1.81062" stroke-linecap="round" stroke-linejoin="round"/>
<rect x="622" y="3.99988" width="22" height="22" rx="11" fill="#E6372B"/>
<path d="M635.062 13.4341L631.937 16.8196M631.937 13.4341L635.062 16.8196M638.5 15.8039C638.5 19.1894 636.312 20.8821 633.712 21.8638C633.576 21.9138 633.428 21.9114 633.294 21.8571C630.687 20.8821 628.5 19.1894 628.5 15.8039V11.0644C628.5 10.8848 628.566 10.7126 628.683 10.5856C628.8 10.4586 628.959 10.3873 629.125 10.3873C630.375 10.3873 631.937 9.57477 633.025 8.5456C633.157 8.42305 633.326 8.35571 633.5 8.35571C633.674 8.35571 633.842 8.42305 633.975 8.5456C635.069 9.58154 636.625 10.3873 637.875 10.3873C638.041 10.3873 638.199 10.4586 638.317 10.5856C638.434 10.7126 638.5 10.8848 638.5 11.0644V15.8039Z" stroke="#FFF8F7" stroke-width="0.739568" stroke-linecap="round" stroke-linejoin="round"/>
<path d="M551.138 78.7701L551.144 69.3711H552.743V77.4051H556.988V78.7701H551.138ZM561.031 78.9001C560.389 78.9001 559.83 78.7636 559.354 78.4906C558.877 78.2133 558.506 77.8168 558.242 77.3011C557.982 76.7855 557.852 76.1658 557.852 75.4421C557.852 74.7401 557.98 74.1248 558.236 73.5961C558.491 73.0675 558.855 72.6558 559.328 72.3611C559.804 72.0665 560.374 71.9191 561.037 71.9191C561.678 71.9191 562.235 72.06 562.708 72.3416C563.18 72.6233 563.544 73.0263 563.8 73.5506C564.06 74.075 564.19 74.7055 564.19 75.4421C564.19 76.1225 564.066 76.7226 563.819 77.2426C563.576 77.7583 563.219 78.1635 562.747 78.4581C562.279 78.7528 561.707 78.9001 561.031 78.9001ZM561.037 77.6976C561.401 77.6976 561.7 77.598 561.934 77.3986C562.172 77.1993 562.35 76.9263 562.467 76.5796C562.584 76.233 562.643 75.8386 562.643 75.3966C562.643 74.985 562.591 74.6058 562.487 74.2591C562.383 73.9125 562.211 73.6351 561.973 73.4271C561.739 73.2148 561.427 73.1086 561.037 73.1086C560.669 73.1086 560.363 73.2061 560.121 73.4011C559.882 73.5918 559.705 73.8605 559.588 74.2071C559.471 74.5495 559.412 74.946 559.412 75.3966C559.412 75.804 559.464 76.1831 559.568 76.5341C559.672 76.8808 559.843 77.1625 560.082 77.3791C560.32 77.5915 560.638 77.6976 561.037 77.6976ZM565.636 78.7701V72.0491H567.151V73.5051C567.259 73.1715 567.413 72.8876 567.612 72.6536C567.816 72.4153 568.054 72.2333 568.327 72.1076C568.6 71.982 568.897 71.9191 569.218 71.9191C569.296 71.9191 569.372 71.9235 569.445 71.9321C569.519 71.9408 569.573 71.956 569.608 71.9776V73.4921C569.56 73.4705 569.497 73.4553 569.419 73.4466C569.346 73.438 569.281 73.4336 569.224 73.4336C568.899 73.4076 568.611 73.4206 568.36 73.4726C568.113 73.5246 567.903 73.6135 567.729 73.7391C567.56 73.8605 567.432 74.0165 567.346 74.2071C567.259 74.3935 567.216 74.6123 567.216 74.8636V78.7701H565.636ZM573.786 78.9001C573.141 78.9001 572.571 78.7636 572.077 78.4906C571.587 78.2133 571.204 77.819 570.926 77.3076C570.653 76.7963 570.517 76.1875 570.517 75.4811C570.517 74.7921 570.64 74.1811 570.887 73.6481C571.139 73.1108 571.501 72.6883 571.973 72.3806C572.45 72.073 573.024 71.9191 573.695 71.9191C574.358 71.9191 574.915 72.06 575.366 72.3416C575.817 72.6233 576.159 73.0176 576.393 73.5246C576.627 74.0273 576.744 74.6166 576.744 75.2926V75.7736H572.096C572.092 76.155 572.153 76.493 572.278 76.7876C572.404 77.0823 572.59 77.3141 572.837 77.4831C573.084 77.6478 573.39 77.7301 573.754 77.7301C574.127 77.7301 574.449 77.6478 574.722 77.4831C575 77.3141 575.184 77.0585 575.275 76.7161H576.718C576.64 77.1841 576.454 77.5806 576.159 77.9056C575.869 78.2306 575.513 78.4776 575.093 78.6466C574.677 78.8156 574.241 78.9001 573.786 78.9001ZM572.09 74.7921H575.249C575.249 74.4671 575.19 74.1746 575.073 73.9146C574.961 73.6503 574.79 73.4423 574.56 73.2906C574.33 73.1346 574.04 73.0566 573.689 73.0566C573.342 73.0566 573.05 73.1411 572.811 73.3101C572.573 73.4791 572.393 73.698 572.272 73.9666C572.151 74.231 572.09 74.5061 572.09 74.7921ZM578.255 78.7701V72.0491H579.796V73.0111C579.991 72.7165 580.255 72.4608 580.589 72.2441C580.927 72.0275 581.356 71.9191 581.876 71.9191C582.114 71.9191 582.355 71.9603 582.597 72.0426C582.844 72.125 583.072 72.2463 583.28 72.4066C583.492 72.567 583.661 72.7663 583.787 73.0046C583.999 72.6883 584.281 72.4283 584.632 72.2246C584.987 72.021 585.386 71.9191 585.828 71.9191C586.071 71.9191 586.32 71.9581 586.575 72.0361C586.835 72.1141 587.074 72.2441 587.29 72.4261C587.507 72.6081 587.683 72.8573 587.817 73.1736C587.951 73.4856 588.018 73.8778 588.018 74.3501V78.7701H586.439V74.5386C586.439 74.205 586.38 73.9428 586.263 73.7521C586.146 73.5615 585.995 73.4271 585.808 73.3491C585.626 73.2668 585.431 73.2256 585.223 73.2256C585.037 73.2256 584.842 73.2625 584.638 73.3361C584.439 73.4098 584.268 73.5311 584.125 73.7001C583.986 73.8691 583.917 74.0966 583.917 74.3826V78.7701H582.337V74.2851C582.337 74.0511 582.277 73.8561 582.155 73.7001C582.034 73.5441 581.88 73.4271 581.694 73.3491C581.512 73.2668 581.326 73.2256 581.135 73.2256C580.94 73.2256 580.741 73.2668 580.537 73.3491C580.338 73.4315 580.171 73.5571 580.036 73.7261C579.902 73.8951 579.835 74.114 579.835 74.3826V78.7701H578.255ZM589.745 78.7701V72.0491H591.26V78.7701H589.745ZM589.719 70.8726V69.3776H591.286V70.8726H589.719ZM593.134 80.8631V72.0491H594.714L594.727 73.1086C594.813 72.9613 594.924 72.8161 595.058 72.6731C595.197 72.5301 595.355 72.4023 595.533 72.2896C595.715 72.177 595.916 72.0881 596.137 72.0231C596.358 71.9538 596.601 71.9191 596.865 71.9191C597.381 71.9191 597.838 72.0426 598.237 72.2896C598.635 72.5323 598.947 72.9071 599.173 73.4141C599.402 73.9211 599.517 74.5625 599.517 75.3381C599.517 76.1311 599.4 76.792 599.166 77.3206C598.932 77.8493 598.605 78.2458 598.185 78.5101C597.764 78.7701 597.277 78.9001 596.722 78.9001C596.467 78.9001 596.233 78.8655 596.02 78.7961C595.812 78.7268 595.626 78.6315 595.461 78.5101C595.297 78.3888 595.151 78.2566 595.026 78.1136C594.904 77.9706 594.803 77.8211 594.72 77.6651V80.8631H593.134ZM596.371 77.7171C596.848 77.7171 597.242 77.5286 597.554 77.1516C597.866 76.7703 598.022 76.1745 598.022 75.3641C598.022 74.6621 597.875 74.1096 597.58 73.7066C597.29 73.2993 596.887 73.0956 596.371 73.0956C595.817 73.0956 595.401 73.3101 595.123 73.7391C594.846 74.1638 594.707 74.7055 594.707 75.3641C594.707 75.7888 594.768 76.181 594.889 76.5406C595.015 76.896 595.199 77.182 595.442 77.3986C595.689 77.611 595.999 77.7171 596.371 77.7171ZM603.503 78.9001C603.035 78.9001 602.591 78.8265 602.171 78.6791C601.755 78.5275 601.404 78.2913 601.118 77.9706C600.836 77.65 600.658 77.2361 600.585 76.7291H601.976C602.036 76.9761 602.143 77.1776 602.294 77.3336C602.45 77.4896 602.632 77.6045 602.84 77.6781C603.053 77.7475 603.271 77.7821 603.497 77.7821C603.9 77.7821 604.225 77.7128 604.472 77.5741C604.719 77.4355 604.842 77.221 604.842 76.9306C604.842 76.7183 604.773 76.5493 604.634 76.4236C604.5 76.298 604.279 76.2026 603.971 76.1376L602.697 75.8451C602.125 75.7195 601.668 75.5115 601.326 75.2211C600.983 74.9308 600.81 74.5213 600.806 73.9926C600.801 73.594 600.901 73.2386 601.105 72.9266C601.308 72.6146 601.612 72.3698 602.015 72.1921C602.418 72.0101 602.914 71.9191 603.503 71.9191C604.288 71.9191 604.916 72.0946 605.388 72.4456C605.865 72.7923 606.11 73.2885 606.123 73.9341H604.777C604.73 73.6438 604.593 73.4185 604.368 73.2581C604.142 73.0935 603.85 73.0111 603.49 73.0111C603.118 73.0111 602.812 73.0826 602.574 73.2256C602.335 73.3686 602.216 73.5875 602.216 73.8821C602.216 74.0858 602.305 74.2461 602.483 74.3631C602.665 74.4801 602.94 74.5798 603.308 74.6621L604.517 74.9546C604.864 75.0413 605.148 75.1583 605.369 75.3056C605.59 75.453 605.761 75.6155 605.882 75.7931C606.008 75.9665 606.095 76.1463 606.142 76.3326C606.194 76.5146 606.22 76.6836 606.22 76.8396C606.22 77.273 606.108 77.6435 605.882 77.9511C605.661 78.2545 605.347 78.4885 604.94 78.6531C604.537 78.8178 604.058 78.9001 603.503 78.9001ZM610.128 78.9001C609.798 78.9001 609.48 78.8525 609.172 78.7571C608.869 78.6575 608.596 78.5145 608.353 78.3281C608.111 78.1375 607.918 77.9035 607.775 77.6261C607.632 77.3488 607.56 77.026 607.56 76.6576V72.0491H609.146V76.4756C609.146 76.8396 609.261 77.1386 609.491 77.3726C609.725 77.6066 610.076 77.7236 610.544 77.7236C610.968 77.7236 611.309 77.6131 611.564 77.3921C611.82 77.1668 611.948 76.844 611.948 76.4236V72.0491H613.521V78.7701H612.305L612.13 77.4571C612.047 77.8255 611.902 78.1158 611.694 78.3281C611.491 78.5361 611.25 78.6835 610.973 78.7701C610.7 78.8568 610.418 78.9001 610.128 78.9001ZM615.376 78.7701V72.0491H616.917V73.0111C617.112 72.7165 617.376 72.4608 617.71 72.2441C618.048 72.0275 618.477 71.9191 618.997 71.9191C619.235 71.9191 619.476 71.9603 619.718 72.0426C619.965 72.125 620.193 72.2463 620.401 72.4066C620.613 72.567 620.782 72.7663 620.908 73.0046C621.12 72.6883 621.402 72.4283 621.753 72.2246C622.108 72.021 622.507 71.9191 622.949 71.9191C623.192 71.9191 623.441 71.9581 623.696 72.0361C623.956 72.1141 624.195 72.2441 624.411 72.4261C624.628 72.6081 624.804 72.8573 624.938 73.1736C625.072 73.4856 625.139 73.8778 625.139 74.3501V78.7701H623.56V74.5386C623.56 74.205 623.501 73.9428 623.384 73.7521C623.267 73.5615 623.116 73.4271 622.929 73.3491C622.747 73.2668 622.552 73.2256 622.344 73.2256C622.158 73.2256 621.963 73.2625 621.759 73.3361C621.56 73.4098 621.389 73.5311 621.246 73.7001C621.107 73.8691 621.038 74.0966 621.038 74.3826V78.7701H619.458V74.2851C619.458 74.0511 619.398 73.8561 619.276 73.7001C619.155 73.5441 619.001 73.4271 618.815 73.3491C618.633 73.2668 618.447 73.2256 618.256 73.2256C618.061 73.2256 617.862 73.2668 617.658 73.3491C617.459 73.4315 617.292 73.5571 617.157 73.7261C617.023 73.8951 616.956 74.114 616.956 74.3826V78.7701H615.376ZM629.336 78.9001C628.448 78.9001 627.75 78.5946 627.243 77.9836C626.736 77.3726 626.483 76.5038 626.483 75.3771C626.483 74.6751 626.585 74.0663 626.788 73.5506C626.996 73.0306 627.302 72.6298 627.705 72.3481C628.108 72.0621 628.604 71.9191 629.193 71.9191C629.471 71.9191 629.722 71.9538 629.947 72.0231C630.177 72.0881 630.381 72.1748 630.558 72.2831C630.736 72.3915 630.886 72.5106 631.007 72.6406C631.133 72.7706 631.23 72.9006 631.299 73.0306V69.1111H632.892V78.7701H631.722L631.546 77.3921C631.49 77.5525 631.41 77.7215 631.306 77.8991C631.206 78.0725 631.07 78.235 630.896 78.3866C630.727 78.5383 630.515 78.6618 630.259 78.7571C630.004 78.8525 629.696 78.9001 629.336 78.9001ZM629.661 77.7366C630.229 77.7366 630.643 77.5525 630.903 77.1841C631.167 76.8115 631.299 76.1961 631.299 75.3381C631.295 74.8485 631.234 74.4368 631.117 74.1031C631.005 73.7695 630.831 73.5181 630.597 73.3491C630.363 73.1801 630.058 73.0956 629.681 73.0956C629.204 73.0956 628.812 73.2711 628.504 73.6221C628.201 73.9731 628.049 74.5451 628.049 75.3381C628.049 76.1268 628.19 76.7248 628.472 77.1321C628.754 77.5351 629.15 77.7366 629.661 77.7366ZM637.494 78.9001C636.853 78.9001 636.294 78.7636 635.817 78.4906C635.341 78.2133 634.97 77.8168 634.706 77.3011C634.446 76.7855 634.316 76.1658 634.316 75.4421C634.316 74.7401 634.444 74.1248 634.699 73.5961C634.955 73.0675 635.319 72.6558 635.791 72.3611C636.268 72.0665 636.838 71.9191 637.501 71.9191C638.142 71.9191 638.699 72.06 639.171 72.3416C639.644 72.6233 640.008 73.0263 640.263 73.5506C640.523 74.075 640.653 74.7055 640.653 75.4421C640.653 76.1225 640.53 76.7226 640.283 77.2426C640.04 77.7583 639.683 78.1635 639.21 78.4581C638.742 78.7528 638.17 78.9001 637.494 78.9001ZM637.501 77.6976C637.865 77.6976 638.164 77.598 638.398 77.3986C638.636 77.1993 638.814 76.9263 638.931 76.5796C639.048 76.233 639.106 75.8386 639.106 75.3966C639.106 74.985 639.054 74.6058 638.95 74.2591C638.846 73.9125 638.675 73.6351 638.437 73.4271C638.203 73.2148 637.891 73.1086 637.501 73.1086C637.133 73.1086 636.827 73.2061 636.584 73.4011C636.346 73.5918 636.168 73.8605 636.051 74.2071C635.934 74.5495 635.876 74.946 635.876 75.3966C635.876 75.804 635.928 76.1831 636.032 76.5341C636.136 76.8808 636.307 77.1625 636.545 77.3791C636.784 77.5915 637.102 77.6976 637.501 77.6976ZM644.037 78.8676C643.604 78.8676 643.257 78.8135 642.997 78.7051C642.737 78.5968 642.542 78.4516 642.412 78.2696C642.282 78.0876 642.198 77.884 642.159 77.6586C642.12 77.429 642.1 77.195 642.1 76.9566V69.1111H643.647V76.7746C643.647 77.065 643.706 77.2903 643.823 77.4506C643.944 77.611 644.139 77.7041 644.408 77.7301L644.746 77.7431V78.7376C644.629 78.7723 644.509 78.8026 644.388 78.8286C644.267 78.8546 644.15 78.8676 644.037 78.8676ZM648.692 78.9001C648.05 78.9001 647.491 78.7636 647.015 78.4906C646.538 78.2133 646.167 77.8168 645.903 77.3011C645.643 76.7855 645.513 76.1658 645.513 75.4421C645.513 74.7401 645.641 74.1248 645.897 73.5961C646.152 73.0675 646.516 72.6558 646.989 72.3611C647.465 72.0665 648.035 71.9191 648.698 71.9191C649.339 71.9191 649.896 72.06 650.369 72.3416C650.841 72.6233 651.205 73.0263 651.461 73.5506C651.721 74.075 651.851 74.7055 651.851 75.4421C651.851 76.1225 651.727 76.7226 651.48 77.2426C651.237 77.7583 650.88 78.1635 650.408 78.4581C649.94 78.7528 649.368 78.9001 648.692 78.9001ZM648.698 77.6976C649.062 77.6976 649.361 77.598 649.595 77.3986C649.833 77.1993 650.011 76.9263 650.128 76.5796C650.245 76.233 650.304 75.8386 650.304 75.3966C650.304 74.985 650.252 74.6058 650.148 74.2591C650.044 73.9125 649.872 73.6351 649.634 73.4271C649.4 73.2148 649.088 73.1086 648.698 73.1086C648.33 73.1086 648.024 73.2061 647.782 73.4011C647.543 73.5918 647.366 73.8605 647.249 74.2071C647.132 74.5495 647.073 74.946 647.073 75.3966C647.073 75.804 647.125 76.1831 647.229 76.5341C647.333 76.8808 647.504 77.1625 647.743 77.3791C647.981 77.5915 648.299 77.6976 648.698 77.6976ZM653.297 78.7701V72.0491H654.812V73.5051C654.92 73.1715 655.074 72.8876 655.273 72.6536C655.477 72.4153 655.715 72.2333 655.988 72.1076C656.261 71.982 656.558 71.9191 656.879 71.9191C656.957 71.9191 657.033 71.9235 657.106 71.9321C657.18 71.9408 657.234 71.956 657.269 71.9776V73.4921C657.221 73.4705 657.158 73.4553 657.08 73.4466C657.007 73.438 656.942 73.4336 656.885 73.4336C656.56 73.4076 656.272 73.4206 656.021 73.4726C655.774 73.5246 655.564 73.6135 655.39 73.7391C655.221 73.8605 655.094 74.0165 655.007 74.2071C654.92 74.3935 654.877 74.6123 654.877 74.8636V78.7701H653.297ZM661.076 78.9001C660.608 78.9001 660.164 78.8265 659.744 78.6791C659.328 78.5275 658.977 78.2913 658.691 77.9706C658.409 77.65 658.232 77.2361 658.158 76.7291H659.549C659.61 76.9761 659.716 77.1776 659.867 77.3336C660.023 77.4896 660.205 77.6045 660.413 77.6781C660.626 77.7475 660.845 77.7821 661.07 77.7821C661.473 77.7821 661.798 77.7128 662.045 77.5741C662.292 77.4355 662.415 77.221 662.415 76.9306C662.415 76.7183 662.346 76.5493 662.207 76.4236C662.073 76.298 661.852 76.2026 661.544 76.1376L660.27 75.8451C659.698 75.7195 659.241 75.5115 658.899 75.2211C658.557 74.9308 658.383 74.5213 658.379 73.9926C658.375 73.594 658.474 73.2386 658.678 72.9266C658.882 72.6146 659.185 72.3698 659.588 72.1921C659.991 72.0101 660.487 71.9191 661.076 71.9191C661.861 71.9191 662.489 72.0946 662.961 72.4456C663.438 72.7923 663.683 73.2885 663.696 73.9341H662.35C662.303 73.6438 662.166 73.4185 661.941 73.2581C661.716 73.0935 661.423 73.0111 661.063 73.0111C660.691 73.0111 660.385 73.0826 660.147 73.2256C659.909 73.3686 659.789 73.5875 659.789 73.8821C659.789 74.0858 659.878 74.2461 660.056 74.3631C660.238 74.4801 660.513 74.5798 660.881 74.6621L662.09 74.9546C662.437 75.0413 662.721 75.1583 662.942 75.3056C663.163 75.453 663.334 75.6155 663.455 75.7931C663.581 75.9665 663.668 76.1463 663.715 76.3326C663.767 76.5146 663.793 76.6836 663.793 76.8396C663.793 77.273 663.681 77.6435 663.455 77.9511C663.234 78.2545 662.92 78.4885 662.513 78.6531C662.11 78.8178 661.631 78.9001 661.076 78.9001ZM665.257 78.7701V72.0491H666.771V78.7701H665.257ZM665.231 70.8726V69.3776H666.797V70.8726H665.231ZM671.28 78.8221C670.747 78.8221 670.333 78.7528 670.039 78.6141C669.748 78.4711 669.547 78.2696 669.434 78.0096C669.321 77.7496 669.265 77.4398 669.265 77.0801V73.1671H668.173V72.0491H669.311L669.707 70.0536H670.845V72.0426H672.346V73.1671H670.845L670.851 77.0216C670.851 77.221 670.873 77.3683 670.916 77.4636C670.964 77.5546 671.037 77.6153 671.137 77.6456C671.241 77.6716 671.378 77.6846 671.547 77.6846H672.379V78.6856C672.288 78.7203 672.153 78.7506 671.976 78.7766C671.802 78.807 671.57 78.8221 671.28 78.8221Z" fill="#525D73"/>
<path d="M590.158 92.4701V87.1214H588.863V86.493C589.267 86.493 589.583 86.4615 589.813 86.3985C590.046 86.3323 590.213 86.2362 590.314 86.1102C590.418 85.9811 590.476 85.8236 590.489 85.6377H591.193V92.4701H590.158ZM595.12 92.574C594.73 92.574 594.366 92.5 594.029 92.352C593.692 92.2008 593.411 91.9897 593.188 91.7188C592.967 91.4448 592.835 91.1187 592.791 90.7407H593.764C593.837 91.04 593.989 91.2825 594.222 91.4684C594.459 91.6542 594.747 91.7472 595.087 91.7472C595.468 91.7472 595.797 91.6495 596.075 91.4542C596.352 91.2589 596.558 90.9549 596.694 90.5423C596.832 90.1296 596.884 89.5973 596.85 88.9452C596.768 89.1657 596.643 89.3595 596.476 89.5264C596.309 89.6902 596.111 89.8194 595.881 89.9139C595.651 90.0084 595.396 90.0556 595.116 90.0556C594.662 90.0556 594.262 89.9674 593.915 89.791C593.569 89.6146 593.298 89.3642 593.103 89.0397C592.907 88.7121 592.81 88.3215 592.81 87.8679C592.81 87.4143 592.907 87.0127 593.103 86.6631C593.301 86.3134 593.58 86.0394 593.939 85.8409C594.301 85.6425 594.73 85.5432 595.224 85.5432C595.766 85.5432 596.235 85.6803 596.632 85.9543C597.029 86.2284 597.335 86.619 597.549 87.1261C597.763 87.6333 597.87 88.2381 597.87 88.9405C597.87 89.7217 597.763 90.3832 597.549 90.925C597.335 91.4637 597.021 91.8732 596.609 92.1535C596.199 92.4339 595.703 92.574 595.12 92.574ZM595.248 89.2146C595.484 89.2146 595.709 89.161 595.923 89.0539C596.138 88.9468 596.313 88.8051 596.448 88.6287C596.587 88.4491 596.656 88.257 596.656 88.0522C596.659 87.712 596.601 87.4143 596.481 87.1592C596.364 86.904 596.199 86.7056 595.985 86.5638C595.774 86.4189 595.525 86.3465 595.238 86.3465C594.98 86.3465 594.75 86.4095 594.549 86.5355C594.347 86.6583 594.188 86.8316 594.071 87.0552C593.958 87.2757 593.901 87.5309 593.901 87.8207C593.901 88.2522 594.018 88.5924 594.251 88.8413C594.484 89.0901 594.816 89.2146 595.248 89.2146ZM598.889 92.4701V91.8984V91.596C598.889 91.2495 598.953 90.9486 599.083 90.6935C599.215 90.4383 599.388 90.2163 599.602 90.0273C599.816 89.8351 600.051 89.665 600.306 89.517C600.565 89.3689 600.821 89.2272 601.076 89.0917C601.332 88.9563 601.566 88.8161 601.78 88.6712C601.995 88.5231 602.166 88.3578 602.296 88.1751C602.428 87.9892 602.494 87.7719 602.494 87.523C602.494 87.1954 602.379 86.9292 602.149 86.7245C601.919 86.5197 601.607 86.4174 601.213 86.4174C600.795 86.4174 600.454 86.5355 600.193 86.7717C599.931 87.008 599.78 87.334 599.739 87.7498H598.747C598.756 87.3435 598.856 86.9733 599.045 86.6394C599.234 86.3055 599.512 86.0394 599.881 85.8409C600.25 85.6425 600.706 85.5432 601.251 85.5432C601.724 85.5432 602.132 85.6267 602.475 85.7937C602.822 85.9575 603.089 86.1874 603.278 86.4835C603.467 86.7796 603.562 87.1245 603.562 87.5183C603.562 87.8679 603.497 88.1688 603.368 88.4208C603.239 88.6728 603.069 88.8901 602.858 89.0728C602.65 89.2555 602.42 89.4177 602.168 89.5595C601.916 89.6981 601.664 89.832 601.412 89.9611C601.16 90.0871 600.928 90.221 600.717 90.3627C600.506 90.5013 600.336 90.6588 600.207 90.8352C600.078 91.0116 600.013 91.2243 600.013 91.4731V91.5912H603.585V92.4701H598.889ZM604.554 92.4701V91.251H605.721V92.4701H604.554ZM608.015 92.4701V87.1214H606.72V86.493C607.124 86.493 607.44 86.4615 607.67 86.3985C607.903 86.3323 608.07 86.2362 608.171 86.1102C608.275 85.9811 608.333 85.8236 608.346 85.6377H609.05V92.4701H608.015ZM613.285 92.574C612.743 92.574 612.272 92.437 611.872 92.163C611.475 91.8858 611.168 91.4936 610.95 90.9864C610.736 90.4761 610.629 89.8698 610.629 89.1673C610.629 88.4302 610.735 87.7908 610.946 87.249C611.157 86.704 611.465 86.2835 611.872 85.9874C612.278 85.6913 612.773 85.5432 613.355 85.5432C613.746 85.5432 614.107 85.6157 614.437 85.7606C614.771 85.9055 615.045 86.115 615.26 86.389C615.477 86.6599 615.606 86.9891 615.647 87.3765H614.707C614.619 87.0615 614.459 86.8158 614.23 86.6394C614.003 86.4599 613.718 86.3701 613.374 86.3701C612.993 86.3701 612.673 86.4788 612.415 86.6961C612.16 86.9103 611.974 87.2238 611.858 87.6364C611.744 88.0491 611.708 88.5468 611.749 89.1295C611.837 88.9216 611.966 88.7405 612.136 88.5861C612.31 88.4286 612.508 88.3074 612.732 88.2223C612.955 88.1373 613.195 88.0947 613.45 88.0947C613.904 88.0947 614.3 88.1814 614.641 88.3546C614.981 88.5279 615.245 88.7751 615.434 89.0964C615.627 89.4177 615.723 89.7989 615.723 90.2399C615.723 90.6935 615.622 91.0967 615.42 91.4495C615.222 91.7991 614.94 92.0748 614.574 92.2764C614.209 92.4748 613.779 92.574 613.285 92.574ZM613.266 91.7613C613.53 91.7613 613.765 91.6999 613.97 91.5771C614.178 91.4511 614.341 91.2778 614.461 91.0573C614.581 90.8337 614.641 90.5769 614.641 90.2871C614.641 89.9942 614.585 89.7438 614.475 89.5359C614.365 89.328 614.206 89.1689 613.998 89.0586C613.793 88.9484 613.548 88.8933 613.261 88.8933C613.025 88.8933 612.799 88.9484 612.585 89.0586C612.371 89.1657 612.196 89.3075 612.061 89.4839C611.925 89.6603 611.858 89.8524 611.858 90.0603C611.851 90.3974 611.906 90.6935 612.023 90.9486C612.143 91.2038 612.308 91.4038 612.519 91.5487C612.733 91.6905 612.982 91.7613 613.266 91.7613ZM619.195 92.574C618.666 92.574 618.203 92.4937 617.806 92.3331C617.409 92.1693 617.1 91.9409 616.88 91.6479C616.662 91.3518 616.554 91.0053 616.554 90.6084C616.554 90.3438 616.62 90.0918 616.752 89.8524C616.885 89.6099 617.055 89.4051 617.263 89.2382C617.47 89.0712 617.686 88.9657 617.91 88.9216C617.607 88.7893 617.355 88.5987 617.154 88.3499C616.952 88.0979 616.851 87.7892 616.851 87.4238C616.851 87.0206 616.954 86.6804 617.159 86.4032C617.366 86.1228 617.647 85.9102 618 85.7653C618.356 85.6173 618.754 85.5432 619.195 85.5432C619.642 85.5432 620.042 85.6173 620.395 85.7653C620.748 85.9102 621.027 86.1228 621.232 86.4032C621.436 86.6804 621.539 87.0206 621.539 87.4238C621.539 87.7892 621.439 88.0979 621.241 88.3499C621.046 88.5987 620.794 88.7893 620.485 88.9216C620.712 88.9657 620.928 89.0712 621.132 89.2382C621.34 89.4051 621.51 89.6099 621.643 89.8524C621.778 90.0918 621.846 90.3438 621.846 90.6084C621.846 91.0053 621.736 91.3518 621.515 91.6479C621.298 91.9409 620.991 92.1693 620.594 92.3331C620.197 92.4937 619.731 92.574 619.195 92.574ZM619.195 91.7755C619.674 91.7755 620.053 91.6684 620.334 91.4542C620.617 91.2369 620.759 90.9502 620.759 90.5943C620.759 90.358 620.694 90.1485 620.565 89.9658C620.439 89.78 620.26 89.6351 620.027 89.5311C619.794 89.424 619.516 89.3705 619.195 89.3705C618.88 89.3705 618.606 89.424 618.373 89.5311C618.14 89.6351 617.959 89.78 617.83 89.9658C617.704 90.1485 617.641 90.358 617.641 90.5943C617.641 90.9502 617.781 91.2369 618.061 91.4542C618.345 91.6684 618.723 91.7755 619.195 91.7755ZM619.195 88.5058C619.586 88.5058 619.902 88.4082 620.145 88.2129C620.39 88.0176 620.513 87.7467 620.513 87.4002C620.513 87.0505 620.39 86.7749 620.145 86.5733C619.899 86.3717 619.583 86.2709 619.195 86.2709C618.811 86.2709 618.496 86.3733 618.25 86.578C618.004 86.7796 617.882 87.0537 617.882 87.4002C617.882 87.7467 618.004 88.0176 618.25 88.2129C618.496 88.4082 618.811 88.5058 619.195 88.5058ZM622.798 92.4701V91.251H623.965V92.4701H622.798ZM626.26 92.4701V87.1214H624.965V86.493C625.368 86.493 625.685 86.4615 625.915 86.3985C626.148 86.3323 626.315 86.2362 626.416 86.1102C626.52 85.9811 626.578 85.8236 626.591 85.6377H627.295V92.4701H626.26ZM628.935 92.4701V91.251H630.102V92.4701H628.935ZM632.397 92.4701V87.1214H631.102V86.493C631.505 86.493 631.822 86.4615 632.052 86.3985C632.285 86.3323 632.452 86.2362 632.553 86.1102C632.657 85.9811 632.715 85.8236 632.728 85.6377H633.432V92.4701H632.397Z" fill="#667085"/>
<circle cx="611.5" cy="160.83" r="26.46" fill="#D7EAFF"/>
<path d="M604.562 155.35H604.572M604.562 166.214H604.572M602.374 151.729H619.874C621.082 151.729 622.062 152.539 622.062 153.539V157.161C622.062 158.16 621.082 158.971 619.874 158.971H602.374C601.166 158.971 600.187 158.16 600.187 157.161V153.539C600.187 152.539 601.166 151.729 602.374 151.729ZM602.374 162.592H619.874C621.082 162.592 622.062 163.403 622.062 164.403V168.024C622.062 169.024 621.082 169.835 619.874 169.835H602.374C601.166 169.835 600.187 169.024 600.187 168.024V164.403C600.187 163.403 601.166 162.592 602.374 162.592Z" stroke="#1873DE" stroke-width="1.81062" stroke-linecap="round" stroke-linejoin="round"/>
<rect x="622" y="129" width="22" height="22" rx="11" fill="#E6372B"/>
<path d="M635.062 138.434L631.937 141.82M631.937 138.434L635.062 141.82M638.5 140.804C638.5 144.189 636.312 145.882 633.712 146.864C633.576 146.914 633.428 146.912 633.294 146.857C630.687 145.882 628.5 144.189 628.5 140.804V136.064C628.5 135.885 628.566 135.713 628.683 135.586C628.8 135.459 628.959 135.387 629.125 135.387C630.375 135.387 631.937 134.575 633.025 133.546C633.157 133.423 633.326 133.356 633.5 133.356C633.674 133.356 633.842 133.423 633.975 133.546C635.069 134.582 636.625 135.387 637.875 135.387C638.041 135.387 638.199 135.459 638.317 135.586C638.434 135.713 638.5 135.885 638.5 136.064V140.804Z" stroke="#FFF8F7" stroke-width="0.739568" stroke-linecap="round" stroke-linejoin="round"/>
<path d="M538.638 203.69L538.644 194.291H540.243V202.325H544.488V203.69H538.638ZM548.531 203.82C547.889 203.82 547.33 203.684 546.854 203.411C546.377 203.133 546.006 202.737 545.742 202.221C545.482 201.706 545.352 201.086 545.352 200.362C545.352 199.66 545.48 199.045 545.736 198.516C545.991 197.988 546.355 197.576 546.828 197.281C547.304 196.987 547.874 196.839 548.537 196.839C549.178 196.839 549.735 196.98 550.208 197.262C550.68 197.543 551.044 197.946 551.3 198.471C551.56 198.995 551.69 199.626 551.69 200.362C551.69 201.043 551.566 201.643 551.319 202.163C551.076 202.678 550.719 203.084 550.247 203.378C549.779 203.673 549.207 203.82 548.531 203.82ZM548.537 202.618C548.901 202.618 549.2 202.518 549.434 202.319C549.672 202.119 549.85 201.846 549.967 201.5C550.084 201.153 550.143 200.759 550.143 200.317C550.143 199.905 550.091 199.526 549.987 199.179C549.883 198.833 549.711 198.555 549.473 198.347C549.239 198.135 548.927 198.029 548.537 198.029C548.169 198.029 547.863 198.126 547.621 198.321C547.382 198.512 547.205 198.781 547.088 199.127C546.971 199.47 546.912 199.866 546.912 200.317C546.912 200.724 546.964 201.103 547.068 201.454C547.172 201.801 547.343 202.083 547.582 202.299C547.82 202.512 548.138 202.618 548.537 202.618ZM553.136 203.69V196.969H554.651V198.425C554.759 198.092 554.913 197.808 555.112 197.574C555.316 197.335 555.554 197.153 555.827 197.028C556.1 196.902 556.397 196.839 556.718 196.839C556.796 196.839 556.872 196.844 556.945 196.852C557.019 196.861 557.073 196.876 557.108 196.898V198.412C557.06 198.391 556.997 198.375 556.919 198.367C556.846 198.358 556.781 198.354 556.724 198.354C556.399 198.328 556.111 198.341 555.86 198.393C555.613 198.445 555.403 198.534 555.229 198.659C555.06 198.781 554.932 198.937 554.846 199.127C554.759 199.314 554.716 199.532 554.716 199.784V203.69H553.136ZM561.286 203.82C560.641 203.82 560.071 203.684 559.577 203.411C559.087 203.133 558.704 202.739 558.426 202.228C558.153 201.716 558.017 201.108 558.017 200.401C558.017 199.712 558.14 199.101 558.387 198.568C558.639 198.031 559.001 197.608 559.473 197.301C559.95 196.993 560.524 196.839 561.195 196.839C561.858 196.839 562.415 196.98 562.866 197.262C563.317 197.543 563.659 197.938 563.893 198.445C564.127 198.947 564.244 199.537 564.244 200.213V200.694H559.596C559.592 201.075 559.653 201.413 559.778 201.708C559.904 202.002 560.09 202.234 560.337 202.403C560.584 202.568 560.89 202.65 561.254 202.65C561.627 202.65 561.949 202.568 562.222 202.403C562.5 202.234 562.684 201.979 562.775 201.636H564.218C564.14 202.104 563.954 202.501 563.659 202.826C563.369 203.151 563.013 203.398 562.593 203.567C562.177 203.736 561.741 203.82 561.286 203.82ZM559.59 199.712H562.749C562.749 199.387 562.69 199.095 562.573 198.835C562.461 198.57 562.29 198.362 562.06 198.211C561.83 198.055 561.54 197.977 561.189 197.977C560.842 197.977 560.55 198.061 560.311 198.23C560.073 198.399 559.893 198.618 559.772 198.887C559.651 199.151 559.59 199.426 559.59 199.712ZM565.755 203.69V196.969H567.296V197.931C567.491 197.637 567.755 197.381 568.089 197.164C568.427 196.948 568.856 196.839 569.376 196.839C569.614 196.839 569.855 196.88 570.097 196.963C570.344 197.045 570.572 197.166 570.78 197.327C570.992 197.487 571.161 197.686 571.287 197.925C571.499 197.608 571.781 197.348 572.132 197.145C572.487 196.941 572.886 196.839 573.328 196.839C573.571 196.839 573.82 196.878 574.075 196.956C574.335 197.034 574.574 197.164 574.79 197.346C575.007 197.528 575.183 197.777 575.317 198.094C575.451 198.406 575.518 198.798 575.518 199.27V203.69H573.939V199.459C573.939 199.125 573.88 198.863 573.763 198.672C573.646 198.482 573.495 198.347 573.308 198.269C573.126 198.187 572.931 198.146 572.723 198.146C572.537 198.146 572.342 198.183 572.138 198.256C571.939 198.33 571.768 198.451 571.625 198.62C571.486 198.789 571.417 199.017 571.417 199.303V203.69H569.837V199.205C569.837 198.971 569.777 198.776 569.655 198.62C569.534 198.464 569.38 198.347 569.194 198.269C569.012 198.187 568.826 198.146 568.635 198.146C568.44 198.146 568.241 198.187 568.037 198.269C567.838 198.352 567.671 198.477 567.536 198.646C567.402 198.815 567.335 199.034 567.335 199.303V203.69H565.755ZM577.245 203.69V196.969H578.76V203.69H577.245ZM577.219 195.793V194.298H578.786V195.793H577.219ZM580.634 205.783V196.969H582.214L582.227 198.029C582.313 197.881 582.424 197.736 582.558 197.593C582.697 197.45 582.855 197.322 583.033 197.21C583.215 197.097 583.416 197.008 583.637 196.943C583.858 196.874 584.101 196.839 584.365 196.839C584.881 196.839 585.338 196.963 585.737 197.21C586.135 197.452 586.447 197.827 586.673 198.334C586.902 198.841 587.017 199.483 587.017 200.258C587.017 201.051 586.9 201.712 586.666 202.241C586.432 202.769 586.105 203.166 585.685 203.43C585.264 203.69 584.777 203.82 584.222 203.82C583.967 203.82 583.733 203.786 583.52 203.716C583.312 203.647 583.126 203.552 582.961 203.43C582.797 203.309 582.651 203.177 582.526 203.034C582.404 202.891 582.303 202.741 582.22 202.585V205.783H580.634ZM583.871 202.637C584.348 202.637 584.742 202.449 585.054 202.072C585.366 201.69 585.522 201.095 585.522 200.284C585.522 199.582 585.375 199.03 585.08 198.627C584.79 198.219 584.387 198.016 583.871 198.016C583.317 198.016 582.901 198.23 582.623 198.659C582.346 199.084 582.207 199.626 582.207 200.284C582.207 200.709 582.268 201.101 582.389 201.461C582.515 201.816 582.699 202.102 582.942 202.319C583.189 202.531 583.499 202.637 583.871 202.637ZM591.003 203.82C590.535 203.82 590.091 203.747 589.671 203.599C589.255 203.448 588.904 203.211 588.618 202.891C588.336 202.57 588.158 202.156 588.085 201.649H589.476C589.536 201.896 589.643 202.098 589.794 202.254C589.95 202.41 590.132 202.525 590.34 202.598C590.553 202.668 590.771 202.702 590.997 202.702C591.4 202.702 591.725 202.633 591.972 202.494C592.219 202.356 592.342 202.141 592.342 201.851C592.342 201.638 592.273 201.469 592.134 201.344C592 201.218 591.779 201.123 591.471 201.058L590.197 200.765C589.625 200.64 589.168 200.432 588.826 200.141C588.483 199.851 588.31 199.441 588.306 198.913C588.301 198.514 588.401 198.159 588.605 197.847C588.808 197.535 589.112 197.29 589.515 197.112C589.918 196.93 590.414 196.839 591.003 196.839C591.788 196.839 592.416 197.015 592.888 197.366C593.365 197.712 593.61 198.209 593.623 198.854H592.277C592.23 198.564 592.093 198.339 591.868 198.178C591.642 198.014 591.35 197.931 590.99 197.931C590.618 197.931 590.312 198.003 590.074 198.146C589.835 198.289 589.716 198.508 589.716 198.802C589.716 199.006 589.805 199.166 589.983 199.283C590.165 199.4 590.44 199.5 590.808 199.582L592.017 199.875C592.364 199.961 592.648 200.078 592.869 200.226C593.09 200.373 593.261 200.536 593.382 200.713C593.508 200.887 593.595 201.066 593.642 201.253C593.694 201.435 593.72 201.604 593.72 201.76C593.72 202.193 593.608 202.564 593.382 202.871C593.161 203.175 592.847 203.409 592.44 203.573C592.037 203.738 591.558 203.82 591.003 203.82ZM597.628 203.82C597.298 203.82 596.98 203.773 596.672 203.677C596.369 203.578 596.096 203.435 595.853 203.248C595.611 203.058 595.418 202.824 595.275 202.546C595.132 202.269 595.06 201.946 595.06 201.578V196.969H596.646V201.396C596.646 201.76 596.761 202.059 596.991 202.293C597.225 202.527 597.576 202.644 598.044 202.644C598.468 202.644 598.809 202.533 599.064 202.312C599.32 202.087 599.448 201.764 599.448 201.344V196.969H601.021V203.69H599.805L599.63 202.377C599.547 202.746 599.402 203.036 599.194 203.248C598.991 203.456 598.75 203.604 598.473 203.69C598.2 203.777 597.918 203.82 597.628 203.82ZM602.876 203.69V196.969H604.417V197.931C604.612 197.637 604.876 197.381 605.21 197.164C605.548 196.948 605.977 196.839 606.497 196.839C606.735 196.839 606.976 196.88 607.218 196.963C607.465 197.045 607.693 197.166 607.901 197.327C608.113 197.487 608.282 197.686 608.408 197.925C608.62 197.608 608.902 197.348 609.253 197.145C609.608 196.941 610.007 196.839 610.449 196.839C610.692 196.839 610.941 196.878 611.196 196.956C611.456 197.034 611.695 197.164 611.911 197.346C612.128 197.528 612.304 197.777 612.438 198.094C612.572 198.406 612.639 198.798 612.639 199.27V203.69H611.06V199.459C611.06 199.125 611.001 198.863 610.884 198.672C610.767 198.482 610.616 198.347 610.429 198.269C610.247 198.187 610.052 198.146 609.844 198.146C609.658 198.146 609.463 198.183 609.259 198.256C609.06 198.33 608.889 198.451 608.746 198.62C608.607 198.789 608.538 199.017 608.538 199.303V203.69H606.958V199.205C606.958 198.971 606.898 198.776 606.776 198.62C606.655 198.464 606.501 198.347 606.315 198.269C606.133 198.187 605.947 198.146 605.756 198.146C605.561 198.146 605.362 198.187 605.158 198.269C604.959 198.352 604.792 198.477 604.657 198.646C604.523 198.815 604.456 199.034 604.456 199.303V203.69H602.876ZM616.836 203.82C615.948 203.82 615.25 203.515 614.743 202.904C614.236 202.293 613.983 201.424 613.983 200.297C613.983 199.595 614.085 198.986 614.288 198.471C614.496 197.951 614.802 197.55 615.205 197.268C615.608 196.982 616.104 196.839 616.693 196.839C616.971 196.839 617.222 196.874 617.447 196.943C617.677 197.008 617.881 197.095 618.058 197.203C618.236 197.312 618.386 197.431 618.507 197.561C618.633 197.691 618.73 197.821 618.799 197.951V194.031H620.392V203.69H619.222L619.046 202.312C618.99 202.473 618.91 202.642 618.806 202.819C618.706 202.993 618.57 203.155 618.396 203.307C618.227 203.458 618.015 203.582 617.759 203.677C617.504 203.773 617.196 203.82 616.836 203.82ZM617.161 202.657C617.729 202.657 618.143 202.473 618.403 202.104C618.667 201.732 618.799 201.116 618.799 200.258C618.795 199.769 618.734 199.357 618.617 199.023C618.505 198.69 618.331 198.438 618.097 198.269C617.863 198.1 617.558 198.016 617.181 198.016C616.704 198.016 616.312 198.191 616.004 198.542C615.701 198.893 615.549 199.465 615.549 200.258C615.549 201.047 615.69 201.645 615.972 202.052C616.254 202.455 616.65 202.657 617.161 202.657ZM624.994 203.82C624.353 203.82 623.794 203.684 623.317 203.411C622.841 203.133 622.47 202.737 622.206 202.221C621.946 201.706 621.816 201.086 621.816 200.362C621.816 199.66 621.944 199.045 622.199 198.516C622.455 197.988 622.819 197.576 623.291 197.281C623.768 196.987 624.338 196.839 625.001 196.839C625.642 196.839 626.199 196.98 626.671 197.262C627.144 197.543 627.508 197.946 627.763 198.471C628.023 198.995 628.153 199.626 628.153 200.362C628.153 201.043 628.03 201.643 627.783 202.163C627.54 202.678 627.183 203.084 626.71 203.378C626.242 203.673 625.67 203.82 624.994 203.82ZM625.001 202.618C625.365 202.618 625.664 202.518 625.898 202.319C626.136 202.119 626.314 201.846 626.431 201.5C626.548 201.153 626.606 200.759 626.606 200.317C626.606 199.905 626.554 199.526 626.45 199.179C626.346 198.833 626.175 198.555 625.937 198.347C625.703 198.135 625.391 198.029 625.001 198.029C624.633 198.029 624.327 198.126 624.084 198.321C623.846 198.512 623.668 198.781 623.551 199.127C623.434 199.47 623.376 199.866 623.376 200.317C623.376 200.724 623.428 201.103 623.532 201.454C623.636 201.801 623.807 202.083 624.045 202.299C624.284 202.512 624.602 202.618 625.001 202.618ZM631.537 203.788C631.104 203.788 630.757 203.734 630.497 203.625C630.237 203.517 630.042 203.372 629.912 203.19C629.782 203.008 629.698 202.804 629.659 202.579C629.62 202.349 629.6 202.115 629.6 201.877V194.031H631.147V201.695C631.147 201.985 631.206 202.21 631.323 202.371C631.444 202.531 631.639 202.624 631.908 202.65L632.246 202.663V203.658C632.129 203.692 632.009 203.723 631.888 203.749C631.767 203.775 631.65 203.788 631.537 203.788ZM636.192 203.82C635.55 203.82 634.991 203.684 634.515 203.411C634.038 203.133 633.667 202.737 633.403 202.221C633.143 201.706 633.013 201.086 633.013 200.362C633.013 199.66 633.141 199.045 633.397 198.516C633.652 197.988 634.016 197.576 634.489 197.281C634.965 196.987 635.535 196.839 636.198 196.839C636.839 196.839 637.396 196.98 637.869 197.262C638.341 197.543 638.705 197.946 638.961 198.471C639.221 198.995 639.351 199.626 639.351 200.362C639.351 201.043 639.227 201.643 638.98 202.163C638.737 202.678 638.38 203.084 637.908 203.378C637.44 203.673 636.868 203.82 636.192 203.82ZM636.198 202.618C636.562 202.618 636.861 202.518 637.095 202.319C637.333 202.119 637.511 201.846 637.628 201.5C637.745 201.153 637.804 200.759 637.804 200.317C637.804 199.905 637.752 199.526 637.648 199.179C637.544 198.833 637.372 198.555 637.134 198.347C636.9 198.135 636.588 198.029 636.198 198.029C635.83 198.029 635.524 198.126 635.282 198.321C635.043 198.512 634.866 198.781 634.749 199.127C634.632 199.47 634.573 199.866 634.573 200.317C634.573 200.724 634.625 201.103 634.729 201.454C634.833 201.801 635.004 202.083 635.243 202.299C635.481 202.512 635.799 202.618 636.198 202.618ZM640.797 203.69V196.969H642.312V198.425C642.42 198.092 642.574 197.808 642.773 197.574C642.977 197.335 643.215 197.153 643.488 197.028C643.761 196.902 644.058 196.839 644.379 196.839C644.457 196.839 644.533 196.844 644.606 196.852C644.68 196.861 644.734 196.876 644.769 196.898V198.412C644.721 198.391 644.658 198.375 644.58 198.367C644.507 198.358 644.442 198.354 644.385 198.354C644.06 198.328 643.772 198.341 643.521 198.393C643.274 198.445 643.064 198.534 642.89 198.659C642.721 198.781 642.594 198.937 642.507 199.127C642.42 199.314 642.377 199.532 642.377 199.784V203.69H640.797ZM648.576 203.82C648.108 203.82 647.664 203.747 647.244 203.599C646.828 203.448 646.477 203.211 646.191 202.891C645.909 202.57 645.732 202.156 645.658 201.649H647.049C647.11 201.896 647.216 202.098 647.367 202.254C647.523 202.41 647.705 202.525 647.913 202.598C648.126 202.668 648.345 202.702 648.57 202.702C648.973 202.702 649.298 202.633 649.545 202.494C649.792 202.356 649.915 202.141 649.915 201.851C649.915 201.638 649.846 201.469 649.707 201.344C649.573 201.218 649.352 201.123 649.044 201.058L647.77 200.765C647.198 200.64 646.741 200.432 646.399 200.141C646.057 199.851 645.883 199.441 645.879 198.913C645.875 198.514 645.974 198.159 646.178 197.847C646.382 197.535 646.685 197.29 647.088 197.112C647.491 196.93 647.987 196.839 648.576 196.839C649.361 196.839 649.989 197.015 650.461 197.366C650.938 197.712 651.183 198.209 651.196 198.854H649.85C649.803 198.564 649.666 198.339 649.441 198.178C649.216 198.014 648.923 197.931 648.563 197.931C648.191 197.931 647.885 198.003 647.647 198.146C647.409 198.289 647.289 198.508 647.289 198.802C647.289 199.006 647.378 199.166 647.556 199.283C647.738 199.4 648.013 199.5 648.381 199.582L649.59 199.875C649.937 199.961 650.221 200.078 650.442 200.226C650.663 200.373 650.834 200.536 650.955 200.713C651.081 200.887 651.168 201.066 651.215 201.253C651.267 201.435 651.293 201.604 651.293 201.76C651.293 202.193 651.181 202.564 650.955 202.871C650.734 203.175 650.42 203.409 650.013 203.573C649.61 203.738 649.131 203.82 648.576 203.82ZM652.757 203.69V196.969H654.271V203.69H652.757ZM652.731 195.793V194.298H654.297V195.793H652.731ZM658.78 203.742C658.247 203.742 657.833 203.673 657.539 203.534C657.248 203.391 657.047 203.19 656.934 202.93C656.821 202.67 656.765 202.36 656.765 202V198.087H655.673V196.969H656.811L657.207 194.974H658.345V196.963H659.846V198.087H658.345L658.351 201.942C658.351 202.141 658.373 202.288 658.416 202.384C658.464 202.475 658.537 202.535 658.637 202.566C658.741 202.592 658.878 202.605 659.047 202.605H659.879V203.606C659.788 203.64 659.653 203.671 659.476 203.697C659.302 203.727 659.07 203.742 658.78 203.742ZM664.536 203.833C663.449 203.833 662.593 203.424 661.969 202.605C661.349 201.786 661.039 200.592 661.039 199.023C661.039 197.966 661.182 197.078 661.468 196.358C661.754 195.635 662.16 195.089 662.684 194.72C663.208 194.348 663.828 194.161 664.543 194.161C665.618 194.161 666.467 194.575 667.091 195.403C667.719 196.226 668.033 197.429 668.033 199.01C668.033 200.583 667.721 201.781 667.097 202.605C666.478 203.424 665.624 203.833 664.536 203.833ZM664.543 202.514C665.154 202.514 665.609 202.243 665.908 201.701C666.207 201.16 666.356 200.265 666.356 199.017C666.356 197.743 666.205 196.828 665.901 196.274C665.598 195.719 665.143 195.442 664.536 195.442C663.93 195.442 663.47 195.721 663.158 196.28C662.851 196.839 662.697 197.751 662.697 199.017C662.697 200.26 662.851 201.155 663.158 201.701C663.47 202.243 663.932 202.514 664.543 202.514ZM672.661 203.833C671.574 203.833 670.718 203.424 670.094 202.605C669.474 201.786 669.164 200.592 669.164 199.023C669.164 197.966 669.307 197.078 669.593 196.358C669.879 195.635 670.285 195.089 670.809 194.72C671.333 194.348 671.953 194.161 672.668 194.161C673.743 194.161 674.592 194.575 675.216 195.403C675.844 196.226 676.158 197.429 676.158 199.01C676.158 200.583 675.846 201.781 675.222 202.605C674.603 203.424 673.749 203.833 672.661 203.833ZM672.668 202.514C673.279 202.514 673.734 202.243 674.033 201.701C674.332 201.16 674.481 200.265 674.481 199.017C674.481 197.743 674.33 196.828 674.026 196.274C673.723 195.719 673.268 195.442 672.661 195.442C672.055 195.442 671.595 195.721 671.283 196.28C670.976 196.839 670.822 197.751 670.822 199.017C670.822 200.26 670.976 201.155 671.283 201.701C671.595 202.243 672.057 202.514 672.668 202.514ZM677.522 203.69V202.845V202.41C677.522 201.929 677.611 201.515 677.788 201.168C677.966 200.817 678.202 200.512 678.497 200.252C678.792 199.992 679.114 199.762 679.465 199.563C679.821 199.359 680.172 199.168 680.518 198.991C680.869 198.809 681.192 198.622 681.487 198.432C681.782 198.237 682.018 198.02 682.195 197.782C682.377 197.543 682.468 197.26 682.468 196.93C682.468 196.51 682.319 196.168 682.02 195.903C681.725 195.635 681.324 195.5 680.817 195.5C680.28 195.5 679.836 195.654 679.485 195.962C679.138 196.269 678.932 196.703 678.867 197.262H677.333C677.342 196.69 677.479 196.17 677.743 195.702C678.007 195.234 678.399 194.861 678.919 194.584C679.439 194.302 680.087 194.161 680.863 194.161C681.535 194.161 682.113 194.278 682.598 194.512C683.088 194.742 683.465 195.065 683.729 195.481C683.998 195.892 684.132 196.373 684.132 196.924C684.132 197.405 684.044 197.816 683.866 198.159C683.693 198.501 683.461 198.798 683.17 199.049C682.884 199.296 682.568 199.515 682.221 199.706C681.879 199.896 681.535 200.076 681.188 200.245C680.846 200.41 680.529 200.583 680.239 200.765C679.953 200.943 679.721 201.147 679.543 201.376C679.37 201.606 679.283 201.881 679.283 202.202V202.338H684.152V203.69H677.522Z" fill="#525D73"/>
<path d="M589.147 217.39V212.041H587.853V211.413C588.256 211.413 588.573 211.382 588.803 211.319C589.036 211.252 589.203 211.156 589.303 211.03C589.407 210.901 589.466 210.744 589.478 210.558H590.182V217.39H589.147ZM594.11 217.494C593.719 217.494 593.355 217.42 593.018 217.272C592.681 217.121 592.401 216.91 592.177 216.639C591.957 216.365 591.824 216.039 591.78 215.661H592.754C592.826 215.96 592.979 216.203 593.212 216.388C593.448 216.574 593.736 216.667 594.077 216.667C594.458 216.667 594.787 216.57 595.064 216.374C595.341 216.179 595.548 215.875 595.683 215.462C595.822 215.05 595.874 214.517 595.839 213.865C595.757 214.086 595.633 214.28 595.466 214.446C595.299 214.61 595.1 214.739 594.87 214.834C594.64 214.928 594.385 214.976 594.105 214.976C593.651 214.976 593.251 214.887 592.905 214.711C592.558 214.535 592.287 214.284 592.092 213.96C591.897 213.632 591.799 213.242 591.799 212.788C591.799 212.334 591.897 211.933 592.092 211.583C592.291 211.233 592.569 210.959 592.928 210.761C593.291 210.563 593.719 210.463 594.214 210.463C594.755 210.463 595.225 210.6 595.622 210.874C596.019 211.148 596.324 211.539 596.538 212.046C596.753 212.553 596.86 213.158 596.86 213.861C596.86 214.642 596.753 215.303 596.538 215.845C596.324 216.384 596.011 216.793 595.598 217.074C595.189 217.354 594.692 217.494 594.11 217.494ZM594.237 214.135C594.474 214.135 594.699 214.081 594.913 213.974C595.127 213.867 595.302 213.725 595.437 213.549C595.576 213.369 595.645 213.177 595.645 212.972C595.648 212.632 595.59 212.334 595.471 212.079C595.354 211.824 595.189 211.626 594.974 211.484C594.763 211.339 594.514 211.267 594.228 211.267C593.97 211.267 593.74 211.33 593.538 211.456C593.336 211.578 593.177 211.752 593.061 211.975C592.947 212.196 592.891 212.451 592.891 212.741C592.891 213.172 593.007 213.512 593.24 213.761C593.473 214.01 593.806 214.135 594.237 214.135ZM597.878 217.39V216.818V216.516C597.878 216.17 597.943 215.869 598.072 215.614C598.204 215.358 598.378 215.136 598.592 214.947C598.806 214.755 599.041 214.585 599.296 214.437C599.554 214.289 599.811 214.147 600.066 214.012C600.321 213.876 600.556 213.736 600.77 213.591C600.984 213.443 601.156 213.278 601.285 213.095C601.417 212.909 601.483 212.692 601.483 212.443C601.483 212.115 601.368 211.849 601.139 211.645C600.909 211.44 600.597 211.337 600.203 211.337C599.784 211.337 599.444 211.456 599.182 211.692C598.921 211.928 598.77 212.254 598.729 212.67H597.737C597.746 212.264 597.845 211.893 598.034 211.559C598.223 211.226 598.502 210.959 598.871 210.761C599.239 210.563 599.696 210.463 600.241 210.463C600.713 210.463 601.121 210.547 601.465 210.714C601.811 210.878 602.079 211.107 602.268 211.404C602.457 211.7 602.551 212.045 602.551 212.438C602.551 212.788 602.487 213.089 602.358 213.341C602.228 213.593 602.058 213.81 601.847 213.993C601.639 214.176 601.409 214.338 601.157 214.48C600.905 214.618 600.653 214.752 600.401 214.881C600.149 215.007 599.918 215.141 599.707 215.283C599.496 215.421 599.326 215.579 599.197 215.755C599.067 215.932 599.003 216.144 599.003 216.393V216.511H602.575V217.39H597.878ZM603.543 217.39V216.171H604.71V217.39H603.543ZM607.005 217.39V212.041H605.71V211.413C606.113 211.413 606.43 211.382 606.66 211.319C606.893 211.252 607.06 211.156 607.161 211.03C607.264 210.901 607.323 210.744 607.335 210.558H608.039V217.39H607.005ZM612.274 217.494C611.732 217.494 611.261 217.357 610.861 217.083C610.464 216.806 610.157 216.414 609.94 215.906C609.726 215.396 609.619 214.79 609.619 214.087C609.619 213.35 609.724 212.711 609.935 212.169C610.146 211.624 610.455 211.204 610.861 210.907C611.268 210.611 611.762 210.463 612.345 210.463C612.735 210.463 613.096 210.536 613.427 210.681C613.761 210.826 614.035 211.035 614.249 211.309C614.466 211.58 614.596 211.909 614.637 212.297H613.696C613.608 211.982 613.449 211.736 613.219 211.559C612.992 211.38 612.707 211.29 612.364 211.29C611.983 211.29 611.663 211.399 611.405 211.616C611.149 211.83 610.964 212.144 610.847 212.556C610.734 212.969 610.697 213.467 610.738 214.05C610.827 213.842 610.956 213.661 611.126 213.506C611.299 213.349 611.498 213.227 611.721 213.142C611.945 213.057 612.184 213.015 612.439 213.015C612.893 213.015 613.29 213.101 613.63 213.275C613.97 213.448 614.235 213.695 614.424 214.016C614.616 214.338 614.712 214.719 614.712 215.16C614.712 215.614 614.611 216.017 614.41 216.37C614.211 216.719 613.929 216.995 613.564 217.196C613.199 217.395 612.769 217.494 612.274 217.494ZM612.255 216.681C612.52 216.681 612.754 216.62 612.959 216.497C613.167 216.371 613.331 216.198 613.451 215.977C613.57 215.754 613.63 215.497 613.63 215.207C613.63 214.914 613.575 214.664 613.465 214.456C613.354 214.248 613.195 214.089 612.987 213.979C612.783 213.868 612.537 213.813 612.25 213.813C612.014 213.813 611.789 213.868 611.575 213.979C611.361 214.086 611.186 214.228 611.05 214.404C610.915 214.58 610.847 214.772 610.847 214.98C610.841 215.317 610.896 215.614 611.012 215.869C611.132 216.124 611.298 216.324 611.509 216.469C611.723 216.611 611.972 216.681 612.255 216.681ZM618.185 217.494C617.655 217.494 617.192 217.414 616.795 217.253C616.398 217.089 616.09 216.861 615.869 216.568C615.652 216.272 615.543 215.925 615.543 215.528C615.543 215.264 615.609 215.012 615.742 214.772C615.874 214.53 616.044 214.325 616.252 214.158C616.46 213.991 616.676 213.886 616.899 213.842C616.597 213.709 616.345 213.519 616.143 213.27C615.942 213.018 615.841 212.709 615.841 212.344C615.841 211.941 615.943 211.6 616.148 211.323C616.356 211.043 616.636 210.83 616.989 210.685C617.345 210.537 617.744 210.463 618.185 210.463C618.632 210.463 619.032 210.537 619.385 210.685C619.737 210.83 620.016 211.043 620.221 211.323C620.426 211.6 620.528 211.941 620.528 212.344C620.528 212.709 620.429 213.018 620.23 213.27C620.035 213.519 619.783 213.709 619.474 213.842C619.701 213.886 619.917 213.991 620.122 214.158C620.33 214.325 620.5 214.53 620.632 214.772C620.768 215.012 620.835 215.264 620.835 215.528C620.835 215.925 620.725 216.272 620.505 216.568C620.287 216.861 619.98 217.089 619.583 217.253C619.186 217.414 618.72 217.494 618.185 217.494ZM618.185 216.696C618.663 216.696 619.043 216.588 619.323 216.374C619.607 216.157 619.749 215.87 619.749 215.514C619.749 215.278 619.684 215.069 619.555 214.886C619.429 214.7 619.249 214.555 619.016 214.451C618.783 214.344 618.506 214.291 618.185 214.291C617.87 214.291 617.595 214.344 617.362 214.451C617.129 214.555 616.948 214.7 616.819 214.886C616.693 215.069 616.63 215.278 616.63 215.514C616.63 215.87 616.77 216.157 617.051 216.374C617.334 216.588 617.712 216.696 618.185 216.696ZM618.185 213.426C618.575 213.426 618.892 213.328 619.134 213.133C619.38 212.938 619.503 212.667 619.503 212.32C619.503 211.971 619.38 211.695 619.134 211.493C618.889 211.292 618.572 211.191 618.185 211.191C617.8 211.191 617.485 211.293 617.24 211.498C616.994 211.7 616.871 211.974 616.871 212.32C616.871 212.667 616.994 212.938 617.24 213.133C617.485 213.328 617.8 213.426 618.185 213.426ZM621.788 217.39V216.171H622.955V217.39H621.788ZM625.249 217.39V212.041H623.955V211.413C624.358 211.413 624.675 211.382 624.904 211.319C625.138 211.252 625.305 211.156 625.405 211.03C625.509 210.901 625.568 210.744 625.58 210.558H626.284V217.39H625.249ZM627.925 217.39V216.171H629.092V217.39H627.925ZM630.418 217.39V216.818V216.516C630.418 216.17 630.483 215.869 630.612 215.614C630.744 215.358 630.917 215.136 631.131 214.947C631.346 214.755 631.58 214.585 631.836 214.437C632.094 214.289 632.351 214.147 632.606 214.012C632.861 213.876 633.096 213.736 633.31 213.591C633.524 213.443 633.696 213.278 633.825 213.095C633.957 212.909 634.023 212.692 634.023 212.443C634.023 212.115 633.908 211.849 633.678 211.645C633.448 211.44 633.136 211.337 632.743 211.337C632.324 211.337 631.984 211.456 631.722 211.692C631.461 211.928 631.309 212.254 631.269 212.67H630.276C630.286 212.264 630.385 211.893 630.574 211.559C630.763 211.226 631.042 210.959 631.41 210.761C631.779 210.563 632.236 210.463 632.781 210.463C633.253 210.463 633.661 210.547 634.004 210.714C634.351 210.878 634.619 211.107 634.808 211.404C634.997 211.7 635.091 212.045 635.091 212.438C635.091 212.788 635.026 213.089 634.897 213.341C634.768 213.593 634.598 213.81 634.387 213.993C634.179 214.176 633.949 214.338 633.697 214.48C633.445 214.618 633.193 214.752 632.941 214.881C632.689 215.007 632.458 215.141 632.247 215.283C632.036 215.421 631.865 215.579 631.736 215.755C631.607 215.932 631.543 216.144 631.543 216.393V216.511H635.115V217.39H630.418Z" fill="#667085"/>
</svg>
